<svg width="6" height="16" viewBox="0 0 6 16" fill="none" xmlns="http://www.w3.org/2000/svg">
<path d="M2.96123 4C4.11725 4 5.06308 3.1 5.06308 2C5.06308 0.9 4.11725 0 2.96123 0C1.80521 0 0.859375 0.9 0.859375 2C0.859375 3.1 1.80521 4 2.96123 4ZM2.96123 6C1.80521 6 0.859375 6.9 0.859375 8C0.859375 9.1 1.80521 10 2.96123 10C4.11725 10 5.06308 9.1 5.06308 8C5.06308 6.9 4.11725 6 2.96123 6ZM2.96123 12C1.80521 12 0.859375 12.9 0.859375 14C0.859375 15.1 1.80521 16 2.96123 16C4.11725 16 5.06308 15.1 5.06308 14C5.06308 12.9 4.11725 12 2.96123 12Z" fill="black"/>
</svg>
