<svg width="59" height="17" viewBox="0 0 59 17" fill="none" xmlns="http://www.w3.org/2000/svg">
<path d="M33.8935 12.817C34.2715 12.817 34.5935 12.7727 34.8595 12.684C35.1301 12.5953 35.3495 12.474 35.5175 12.32C35.6901 12.166 35.8161 11.984 35.8955 11.774C35.9748 11.5593 36.0145 11.326 36.0145 11.074C36.0145 10.5747 35.8418 10.1827 35.4965 9.898C35.1511 9.60867 34.6168 9.464 33.8935 9.464H31.7935V12.817H33.8935ZM31.7935 5.117V8.407H33.5085C34.2411 8.407 34.7848 8.26 35.1395 7.966C35.4988 7.66733 35.6785 7.266 35.6785 6.762C35.6785 6.188 35.5081 5.77033 35.1675 5.509C34.8268 5.24767 34.2971 5.117 33.5785 5.117H31.7935ZM33.5785 3.948C34.2085 3.948 34.7475 4.00867 35.1955 4.13C35.6481 4.25133 36.0191 4.42633 36.3085 4.655C36.5978 4.88367 36.8101 5.16133 36.9455 5.488C37.0855 5.81 37.1555 6.17633 37.1555 6.587C37.1555 6.82967 37.1181 7.063 37.0435 7.287C36.9688 7.511 36.8545 7.721 36.7005 7.917C36.5465 8.10833 36.3528 8.281 36.1195 8.435C35.8861 8.589 35.6108 8.71733 35.2935 8.82C36.7541 9.10933 37.4845 9.87233 37.4845 11.109C37.4845 11.5383 37.4051 11.9303 37.2465 12.285C37.0878 12.635 36.8568 12.9383 36.5535 13.195C36.2501 13.4517 35.8768 13.65 35.4335 13.79C34.9901 13.93 34.4861 14 33.9215 14H30.3025V3.948H33.5785ZM42.8269 10.843C42.2716 10.8617 41.8002 10.906 41.4129 10.976C41.0256 11.0413 40.7106 11.13 40.4679 11.242C40.2252 11.354 40.0502 11.487 39.9429 11.641C39.8356 11.7903 39.7819 11.9583 39.7819 12.145C39.7819 12.3223 39.8099 12.4763 39.8659 12.607C39.9266 12.733 40.0059 12.838 40.1039 12.922C40.2066 13.0013 40.3256 13.0597 40.4609 13.097C40.5962 13.1343 40.7432 13.153 40.9019 13.153C41.1119 13.153 41.3032 13.132 41.4759 13.09C41.6532 13.048 41.8189 12.9897 41.9729 12.915C42.1269 12.8357 42.2739 12.74 42.4139 12.628C42.5539 12.516 42.6916 12.3877 42.8269 12.243V10.843ZM38.8229 7.882C39.2196 7.504 39.6489 7.22167 40.1109 7.035C40.5776 6.84833 41.0886 6.755 41.6439 6.755C42.0499 6.755 42.4092 6.82267 42.7219 6.958C43.0346 7.08867 43.2982 7.273 43.5129 7.511C43.7276 7.749 43.8886 8.03367 43.9959 8.365C44.1079 8.69633 44.1639 9.06267 44.1639 9.464V14H43.5549C43.4196 14 43.3169 13.979 43.2469 13.937C43.1769 13.8903 43.1209 13.8063 43.0789 13.685L42.9319 13.062C42.7499 13.23 42.5702 13.3793 42.3929 13.51C42.2156 13.636 42.0289 13.7457 41.8329 13.839C41.6416 13.9277 41.4362 13.9953 41.2169 14.042C40.9976 14.0887 40.7549 14.112 40.4889 14.112C40.2089 14.112 39.9452 14.0747 39.6979 14C39.4552 13.9207 39.2429 13.8017 39.0609 13.643C38.8789 13.4843 38.7342 13.286 38.6269 13.048C38.5242 12.81 38.4729 12.5323 38.4729 12.215C38.4729 11.935 38.5476 11.6667 38.6969 11.41C38.8509 11.1487 39.0982 10.9153 39.4389 10.71C39.7842 10.5047 40.2322 10.3367 40.7829 10.206C41.3382 10.0753 42.0196 10.0007 42.8269 9.982V9.464C42.8269 8.92733 42.7126 8.526 42.4839 8.26C42.2552 7.994 41.9192 7.861 41.4759 7.861C41.1772 7.861 40.9252 7.89833 40.7199 7.973C40.5192 8.04767 40.3442 8.13167 40.1949 8.225C40.0502 8.31367 39.9219 8.39533 39.8099 8.47C39.7026 8.54467 39.5906 8.582 39.4739 8.582C39.3806 8.582 39.2989 8.55633 39.2289 8.505C39.1636 8.45367 39.1099 8.393 39.0679 8.323L38.8229 7.882ZM50.9752 8.218C50.9332 8.26933 50.8912 8.31133 50.8492 8.344C50.8119 8.372 50.7559 8.386 50.6812 8.386C50.6066 8.386 50.5272 8.358 50.4432 8.302C50.3639 8.24133 50.2612 8.17833 50.1352 8.113C50.0139 8.043 49.8646 7.98 49.6872 7.924C49.5146 7.86333 49.2999 7.833 49.0432 7.833C48.7072 7.833 48.4109 7.89367 48.1542 8.015C47.8976 8.13633 47.6829 8.309 47.5102 8.533C47.3422 8.757 47.2139 9.03 47.1252 9.352C47.0366 9.674 46.9922 10.0357 46.9922 10.437C46.9922 10.8523 47.0389 11.2233 47.1322 11.55C47.2256 11.872 47.3586 12.145 47.5312 12.369C47.7039 12.5883 47.9139 12.7563 48.1612 12.873C48.4086 12.985 48.6839 13.041 48.9872 13.041C49.2812 13.041 49.5239 13.006 49.7152 12.936C49.9066 12.8613 50.0652 12.782 50.1912 12.698C50.3172 12.614 50.4222 12.537 50.5062 12.467C50.5902 12.3923 50.6766 12.355 50.7652 12.355C50.8772 12.355 50.9636 12.397 51.0242 12.481L51.4162 12.985C51.2529 13.1857 51.0686 13.356 50.8632 13.496C50.6626 13.636 50.4479 13.7503 50.2192 13.839C49.9906 13.9277 49.7502 13.993 49.4982 14.035C49.2509 14.077 48.9989 14.098 48.7422 14.098C48.2989 14.098 47.8836 14.0163 47.4962 13.853C47.1136 13.6897 46.7799 13.4517 46.4952 13.139C46.2152 12.8263 45.9936 12.4437 45.8302 11.991C45.6669 11.5337 45.5852 11.0157 45.5852 10.437C45.5852 9.90967 45.6576 9.422 45.8022 8.974C45.9516 8.526 46.1686 8.141 46.4532 7.819C46.7426 7.49233 47.0972 7.238 47.5172 7.056C47.9372 6.86933 48.4179 6.776 48.9592 6.776C49.4679 6.776 49.9159 6.85767 50.3032 7.021C50.6906 7.18433 51.0359 7.41533 51.3392 7.714L50.9752 8.218ZM54.0554 3.668V9.709H54.3774C54.4754 9.709 54.5571 9.695 54.6224 9.667C54.6878 9.639 54.7554 9.583 54.8254 9.499L56.9534 7.154C57.0188 7.06533 57.0911 7 57.1704 6.958C57.2498 6.91133 57.3501 6.888 57.4714 6.888H58.7174L56.2044 9.639C56.0691 9.81167 55.9244 9.94467 55.7704 10.038C55.8591 10.0987 55.9361 10.1687 56.0014 10.248C56.0714 10.3273 56.1391 10.4137 56.2044 10.507L58.8784 14H57.6534C57.5414 14 57.4434 13.9813 57.3594 13.944C57.2801 13.9067 57.2078 13.839 57.1424 13.741L54.9444 10.885C54.8744 10.7777 54.8044 10.71 54.7344 10.682C54.6644 10.6493 54.5594 10.633 54.4194 10.633H54.0554V14H52.6904V3.668H54.0554Z" fill="#FF6634"/>
<path d="M0 10L10 15.7735L10 4.2265L0 10ZM9 11L23 11L23 9L9 9L9 11Z" fill="#FF6634"/>
</svg>
