<svg width="8" height="9" viewBox="0 0 8 9" fill="none" xmlns="http://www.w3.org/2000/svg">
<path d="M7.125 7.67188H3V2.42188H7.125V7.67188ZM7.125 1.67188H3C2.80109 1.67188 2.61032 1.75089 2.46967 1.89154C2.32902 2.0322 2.25 2.22296 2.25 2.42188V7.67188C2.25 7.87079 2.32902 8.06155 2.46967 8.2022C2.61032 8.34286 2.80109 8.42188 3 8.42188H7.125C7.32391 8.42188 7.51468 8.34286 7.65533 8.2022C7.79598 8.06155 7.875 7.87079 7.875 7.67188V2.42188C7.875 2.22296 7.79598 2.0322 7.65533 1.89154C7.51468 1.75089 7.32391 1.67188 7.125 1.67188ZM6 0.171875H1.5C1.30109 0.171875 1.11032 0.250893 0.96967 0.391545C0.829018 0.532197 0.75 0.722963 0.75 0.921875V6.17188H1.5V0.921875H6V0.171875Z" fill="black" fill-opacity="0.5"/>
</svg>
