<svg width="15" height="10" viewBox="0 0 15 10" fill="none" xmlns="http://www.w3.org/2000/svg">
<path d="M7.5 3C8.04249 3 8.56276 3.21071 8.94636 3.58579C9.32995 3.96086 9.54545 4.46957 9.54545 5C9.54545 5.53043 9.32995 6.03914 8.94636 6.41421C8.56276 6.78929 8.04249 7 7.5 7C6.95751 7 6.43724 6.78929 6.05365 6.41421C5.67005 6.03914 5.45455 5.53043 5.45455 5C5.45455 4.46957 5.67005 3.96086 6.05365 3.58579C6.43724 3.21071 6.95751 3 7.5 3V3ZM7.5 0C10.9091 0 13.8205 2.07333 15 5C13.8205 7.92667 10.9091 10 7.5 10C4.09091 10 1.17955 7.92667 0 5C1.17955 2.07333 4.09091 0 7.5 0ZM1.48636 5C2.61136 7.24 4.93636 8.66667 7.5 8.66667C10.0636 8.66667 12.3886 7.24 13.5136 5C12.3886 2.76 10.0636 1.33333 7.5 1.33333C4.93636 1.33333 2.61136 2.76 1.48636 5Z" fill="black"/>
</svg>
