<svg width="56" height="56" viewBox="0 0 56 56" fill="none" xmlns="http://www.w3.org/2000/svg">
<circle cx="28" cy="28" r="28" fill="#2626BC"/>
<g clip-path="url(#clip0_412_15666)">
<path d="M23.0009 14.5605C22.4614 14.5605 21.9441 14.7748 21.5627 15.1563C21.1812 15.5377 20.9669 16.055 20.9669 16.5945V19.7663H33.4863C34.6545 19.7663 35.6009 20.7239 35.6009 21.9055V31.094H38.8556C39.1229 31.0941 39.3876 31.0416 39.6345 30.9394C39.8815 30.8372 40.1059 30.6873 40.2949 30.4983C40.4839 30.3093 40.6338 30.0849 40.736 29.8379C40.8382 29.5909 40.8908 29.3262 40.8906 29.0589V16.5945C40.8906 16.3273 40.838 16.0627 40.7357 15.8159C40.6334 15.569 40.4835 15.3448 40.2945 15.1559C40.1055 14.967 39.8812 14.8172 39.6343 14.715C39.3874 14.6129 39.1228 14.5604 38.8556 14.5605H23.0009ZM17.1522 20.3263C16.8849 20.3262 16.6202 20.3787 16.3733 20.4809C16.1263 20.5831 15.9019 20.733 15.7129 20.922C15.5239 21.111 15.374 21.3354 15.2718 21.5824C15.1696 21.8294 15.117 22.0941 15.1172 22.3613V40.4213C15.1172 41.3285 16.2137 41.7821 16.8532 41.1404L21.0521 36.9426H33.0069C33.5464 36.9426 34.0637 36.7283 34.4451 36.3469C34.8266 35.9655 35.0409 35.4481 35.0409 34.9087V22.3613C35.041 22.0942 34.9885 21.8296 34.8864 21.5827C34.7842 21.3358 34.6344 21.1114 34.4455 20.9224C34.2567 20.7334 34.0324 20.5835 33.7856 20.4812C33.5387 20.379 33.2741 20.3263 33.0069 20.3263H17.1511H17.1522Z" fill="white"/>
<ellipse cx="20.7216" cy="28.5614" rx="1.12" ry="1.12" fill="#2626BC"/>
<ellipse cx="29.6825" cy="28.5614" rx="1.12" ry="1.12" fill="#2626BC"/>
<ellipse cx="25.2059" cy="28.5614" rx="1.12" ry="1.12" fill="#2626BC"/>
</g>
<defs>
<clipPath id="clip0_412_15666">
<rect width="26.88" height="26.88" fill="white" transform="translate(14.5625 14.5605)"/>
</clipPath>
</defs>
</svg>
