<svg width="138" height="40" viewBox="0 0 138 40" fill="none" xmlns="http://www.w3.org/2000/svg">
<rect width="138" height="40" rx="4" fill="#0D0D0D"/>
<path d="M58.082 11.866V15.166C57.65 15.478 57.188 15.712 56.696 15.868C56.208 16.02 55.672 16.096 55.088 16.096C54.396 16.096 53.772 15.99 53.216 15.778C52.66 15.562 52.184 15.262 51.788 14.878C51.396 14.49 51.094 14.026 50.882 13.486C50.67 12.946 50.564 12.352 50.564 11.704C50.564 11.048 50.666 10.45 50.87 9.91C51.078 9.37 51.372 8.908 51.752 8.524C52.132 8.136 52.594 7.836 53.138 7.624C53.682 7.412 54.29 7.306 54.962 7.306C55.302 7.306 55.618 7.332 55.91 7.384C56.202 7.432 56.472 7.504 56.72 7.6C56.968 7.692 57.198 7.806 57.41 7.942C57.622 8.074 57.82 8.224 58.004 8.392L57.674 8.92C57.622 9 57.554 9.052 57.47 9.076C57.39 9.096 57.3 9.076 57.2 9.016C57.104 8.96 56.994 8.892 56.87 8.812C56.746 8.732 56.594 8.656 56.414 8.584C56.238 8.508 56.028 8.444 55.784 8.392C55.544 8.34 55.258 8.314 54.926 8.314C54.442 8.314 54.004 8.394 53.612 8.554C53.22 8.71 52.886 8.936 52.61 9.232C52.334 9.524 52.122 9.88 51.974 10.3C51.826 10.716 51.752 11.184 51.752 11.704C51.752 12.244 51.828 12.728 51.98 13.156C52.136 13.58 52.356 13.942 52.64 14.242C52.928 14.538 53.276 14.764 53.684 14.92C54.092 15.076 54.55 15.154 55.058 15.154C55.458 15.154 55.812 15.11 56.12 15.022C56.432 14.93 56.736 14.804 57.032 14.644V12.754H55.694C55.618 12.754 55.556 12.732 55.508 12.688C55.464 12.644 55.442 12.59 55.442 12.526V11.866H58.082ZM63.6093 12.298C63.6093 12.05 63.5733 11.824 63.5013 11.62C63.4333 11.412 63.3313 11.234 63.1953 11.086C63.0633 10.934 62.9013 10.818 62.7093 10.738C62.5173 10.654 62.2993 10.612 62.0553 10.612C61.5433 10.612 61.1373 10.762 60.8373 11.062C60.5413 11.358 60.3573 11.77 60.2853 12.298H63.6093ZM64.4733 15.148C64.3413 15.308 64.1833 15.448 63.9993 15.568C63.8153 15.684 63.6173 15.78 63.4053 15.856C63.1973 15.932 62.9813 15.988 62.7573 16.024C62.5333 16.064 62.3113 16.084 62.0913 16.084C61.6713 16.084 61.2833 16.014 60.9273 15.874C60.5753 15.73 60.2693 15.522 60.0093 15.25C59.7533 14.974 59.5533 14.634 59.4093 14.23C59.2653 13.826 59.1933 13.362 59.1933 12.838C59.1933 12.414 59.2573 12.018 59.3853 11.65C59.5173 11.282 59.7053 10.964 59.9493 10.696C60.1933 10.424 60.4913 10.212 60.8433 10.06C61.1953 9.904 61.5913 9.826 62.0313 9.826C62.3953 9.826 62.7313 9.888 63.0393 10.012C63.3513 10.132 63.6193 10.308 63.8433 10.54C64.0713 10.768 64.2493 11.052 64.3773 11.392C64.5053 11.728 64.5693 12.112 64.5693 12.544C64.5693 12.712 64.5513 12.824 64.5153 12.88C64.4793 12.936 64.4113 12.964 64.3113 12.964H60.2493C60.2613 13.348 60.3133 13.682 60.4053 13.966C60.5013 14.25 60.6333 14.488 60.8013 14.68C60.9693 14.868 61.1693 15.01 61.4013 15.106C61.6333 15.198 61.8933 15.244 62.1813 15.244C62.4493 15.244 62.6793 15.214 62.8713 15.154C63.0673 15.09 63.2353 15.022 63.3753 14.95C63.5153 14.878 63.6313 14.812 63.7233 14.752C63.8193 14.688 63.9013 14.656 63.9693 14.656C64.0573 14.656 64.1253 14.69 64.1733 14.758L64.4733 15.148ZM67.7003 16.096C67.2203 16.096 66.8503 15.962 66.5903 15.694C66.3343 15.426 66.2063 15.04 66.2063 14.536V10.816H65.4743C65.4103 10.816 65.3563 10.798 65.3123 10.762C65.2683 10.722 65.2463 10.662 65.2463 10.582V10.156L66.2423 10.03L66.4883 8.152C66.5003 8.092 66.5263 8.044 66.5663 8.008C66.6103 7.968 66.6663 7.948 66.7343 7.948H67.2743V10.042H69.0323V10.816H67.2743V14.464C67.2743 14.72 67.3363 14.91 67.4603 15.034C67.5843 15.158 67.7443 15.22 67.9403 15.22C68.0523 15.22 68.1483 15.206 68.2283 15.178C68.3123 15.146 68.3843 15.112 68.4443 15.076C68.5043 15.04 68.5543 15.008 68.5943 14.98C68.6383 14.948 68.6763 14.932 68.7083 14.932C68.7643 14.932 68.8143 14.966 68.8583 15.034L69.1703 15.544C68.9863 15.716 68.7643 15.852 68.5043 15.952C68.2443 16.048 67.9763 16.096 67.7003 16.096ZM74.3334 9.922V16H73.2654V9.922H74.3334ZM74.5614 8.014C74.5614 8.118 74.5394 8.216 74.4954 8.308C74.4554 8.396 74.3994 8.476 74.3274 8.548C74.2594 8.616 74.1774 8.67 74.0814 8.71C73.9894 8.75 73.8914 8.77 73.7874 8.77C73.6834 8.77 73.5854 8.75 73.4934 8.71C73.4054 8.67 73.3274 8.616 73.2594 8.548C73.1914 8.476 73.1374 8.396 73.0974 8.308C73.0574 8.216 73.0374 8.118 73.0374 8.014C73.0374 7.91 73.0574 7.812 73.0974 7.72C73.1374 7.624 73.1914 7.542 73.2594 7.474C73.3274 7.402 73.4054 7.346 73.4934 7.306C73.5854 7.266 73.6834 7.246 73.7874 7.246C73.8914 7.246 73.9894 7.266 74.0814 7.306C74.1774 7.346 74.2594 7.402 74.3274 7.474C74.3994 7.542 74.4554 7.624 74.4954 7.72C74.5394 7.812 74.5614 7.91 74.5614 8.014ZM77.9542 16.096C77.4742 16.096 77.1042 15.962 76.8442 15.694C76.5882 15.426 76.4602 15.04 76.4602 14.536V10.816H75.7282C75.6642 10.816 75.6102 10.798 75.5662 10.762C75.5222 10.722 75.5002 10.662 75.5002 10.582V10.156L76.4962 10.03L76.7422 8.152C76.7542 8.092 76.7802 8.044 76.8202 8.008C76.8642 7.968 76.9202 7.948 76.9882 7.948H77.5282V10.042H79.2862V10.816H77.5282V14.464C77.5282 14.72 77.5902 14.91 77.7142 15.034C77.8382 15.158 77.9982 15.22 78.1942 15.22C78.3062 15.22 78.4022 15.206 78.4822 15.178C78.5662 15.146 78.6382 15.112 78.6982 15.076C78.7582 15.04 78.8082 15.008 78.8482 14.98C78.8922 14.948 78.9302 14.932 78.9622 14.932C79.0182 14.932 79.0682 14.966 79.1122 15.034L79.4242 15.544C79.2402 15.716 79.0182 15.852 78.7582 15.952C78.4982 16.048 78.2302 16.096 77.9542 16.096ZM86.0213 9.826C86.4653 9.826 86.8653 9.9 87.2213 10.048C87.5773 10.196 87.8813 10.406 88.1333 10.678C88.3853 10.95 88.5773 11.28 88.7093 11.668C88.8453 12.052 88.9133 12.482 88.9133 12.958C88.9133 13.438 88.8453 13.87 88.7093 14.254C88.5773 14.638 88.3853 14.966 88.1333 15.238C87.8813 15.51 87.5773 15.72 87.2213 15.868C86.8653 16.012 86.4653 16.084 86.0213 16.084C85.5733 16.084 85.1693 16.012 84.8093 15.868C84.4533 15.72 84.1493 15.51 83.8973 15.238C83.6453 14.966 83.4513 14.638 83.3153 14.254C83.1833 13.87 83.1173 13.438 83.1173 12.958C83.1173 12.482 83.1833 12.052 83.3153 11.668C83.4513 11.28 83.6453 10.95 83.8973 10.678C84.1493 10.406 84.4533 10.196 84.8093 10.048C85.1693 9.9 85.5733 9.826 86.0213 9.826ZM86.0213 15.25C86.6213 15.25 87.0693 15.05 87.3653 14.65C87.6613 14.246 87.8093 13.684 87.8093 12.964C87.8093 12.24 87.6613 11.676 87.3653 11.272C87.0693 10.868 86.6213 10.666 86.0213 10.666C85.7173 10.666 85.4513 10.718 85.2233 10.822C84.9993 10.926 84.8113 11.076 84.6593 11.272C84.5113 11.468 84.3993 11.71 84.3233 11.998C84.2513 12.282 84.2153 12.604 84.2153 12.964C84.2153 13.684 84.3633 14.246 84.6593 14.65C84.9593 15.05 85.4133 15.25 86.0213 15.25ZM91.2759 10.804C91.4079 10.656 91.5479 10.522 91.6959 10.402C91.8439 10.282 91.9999 10.18 92.1639 10.096C92.3319 10.008 92.5079 9.942 92.6919 9.898C92.8799 9.85 93.0819 9.826 93.2979 9.826C93.6299 9.826 93.9219 9.882 94.1739 9.994C94.4299 10.102 94.6419 10.258 94.8099 10.462C94.9819 10.662 95.1119 10.904 95.1999 11.188C95.2879 11.472 95.3319 11.786 95.3319 12.13V16H94.2579V12.13C94.2579 11.67 94.1519 11.314 93.9399 11.062C93.7319 10.806 93.4139 10.678 92.9859 10.678C92.6699 10.678 92.3739 10.754 92.0979 10.906C91.8259 11.058 91.5739 11.264 91.3419 11.524V16H90.2679V9.922H90.9099C91.0619 9.922 91.1559 9.996 91.1919 10.144L91.2759 10.804ZM60.1025 28.8325V32.9575C59.5625 33.3475 58.985 33.64 58.37 33.835C57.76 34.025 57.09 34.12 56.36 34.12C55.495 34.12 54.715 33.9875 54.02 33.7225C53.325 33.4525 52.73 33.0775 52.235 32.5975C51.745 32.1125 51.3675 31.5325 51.1025 30.8575C50.8375 30.1825 50.705 29.44 50.705 28.63C50.705 27.81 50.8325 27.0625 51.0875 26.3875C51.3475 25.7125 51.715 25.135 52.19 24.655C52.665 24.17 53.2425 23.795 53.9225 23.53C54.6025 23.265 55.3625 23.1325 56.2025 23.1325C56.6275 23.1325 57.0225 23.165 57.3875 23.23C57.7525 23.29 58.09 23.38 58.4 23.5C58.71 23.615 58.9975 23.7575 59.2625 23.9275C59.5275 24.0925 59.775 24.28 60.005 24.49L59.5925 25.15C59.5275 25.25 59.4425 25.315 59.3375 25.345C59.2375 25.37 59.125 25.345 59 25.27C58.88 25.2 58.7425 25.115 58.5875 25.015C58.4325 24.915 58.2425 24.82 58.0175 24.73C57.7975 24.635 57.535 24.555 57.23 24.49C56.93 24.425 56.5725 24.3925 56.1575 24.3925C55.5525 24.3925 55.005 24.4925 54.515 24.6925C54.025 24.8875 53.6075 25.17 53.2625 25.54C52.9175 25.905 52.6525 26.35 52.4675 26.875C52.2825 27.395 52.19 27.98 52.19 28.63C52.19 29.305 52.285 29.91 52.475 30.445C52.67 30.975 52.945 31.4275 53.3 31.8025C53.66 32.1725 54.095 32.455 54.605 32.65C55.115 32.845 55.6875 32.9425 56.3225 32.9425C56.8225 32.9425 57.265 32.8875 57.65 32.7775C58.04 32.6625 58.42 32.505 58.79 32.305V29.9425H57.1175C57.0225 29.9425 56.945 29.915 56.885 29.86C56.83 29.805 56.8025 29.7375 56.8025 29.6575V28.8325H60.1025ZM65.1291 26.2825C65.6841 26.2825 66.1841 26.375 66.6291 26.56C67.0741 26.745 67.4541 27.0075 67.7691 27.3475C68.0841 27.6875 68.3241 28.1 68.4891 28.585C68.6591 29.065 68.7441 29.6025 68.7441 30.1975C68.7441 30.7975 68.6591 31.3375 68.4891 31.8175C68.3241 32.2975 68.0841 32.7075 67.7691 33.0475C67.4541 33.3875 67.0741 33.65 66.6291 33.835C66.1841 34.015 65.6841 34.105 65.1291 34.105C64.5691 34.105 64.0641 34.015 63.6141 33.835C63.1691 33.65 62.7891 33.3875 62.4741 33.0475C62.1591 32.7075 61.9166 32.2975 61.7466 31.8175C61.5816 31.3375 61.4991 30.7975 61.4991 30.1975C61.4991 29.6025 61.5816 29.065 61.7466 28.585C61.9166 28.1 62.1591 27.6875 62.4741 27.3475C62.7891 27.0075 63.1691 26.745 63.6141 26.56C64.0641 26.375 64.5691 26.2825 65.1291 26.2825ZM65.1291 33.0625C65.8791 33.0625 66.4391 32.8125 66.8091 32.3125C67.1791 31.8075 67.3641 31.105 67.3641 30.205C67.3641 29.3 67.1791 28.595 66.8091 28.09C66.4391 27.585 65.8791 27.3325 65.1291 27.3325C64.7491 27.3325 64.4166 27.3975 64.1316 27.5275C63.8516 27.6575 63.6166 27.845 63.4266 28.09C63.2416 28.335 63.1016 28.6375 63.0066 28.9975C62.9166 29.3525 62.8716 29.755 62.8716 30.205C62.8716 31.105 63.0566 31.8075 63.4266 32.3125C63.8016 32.8125 64.3691 33.0625 65.1291 33.0625ZM73.6399 26.2825C74.1949 26.2825 74.6949 26.375 75.1399 26.56C75.5849 26.745 75.9649 27.0075 76.2799 27.3475C76.5949 27.6875 76.8349 28.1 76.9999 28.585C77.1699 29.065 77.2549 29.6025 77.2549 30.1975C77.2549 30.7975 77.1699 31.3375 76.9999 31.8175C76.8349 32.2975 76.5949 32.7075 76.2799 33.0475C75.9649 33.3875 75.5849 33.65 75.1399 33.835C74.6949 34.015 74.1949 34.105 73.6399 34.105C73.0799 34.105 72.5749 34.015 72.1249 33.835C71.6799 33.65 71.2999 33.3875 70.9849 33.0475C70.6699 32.7075 70.4274 32.2975 70.2574 31.8175C70.0924 31.3375 70.0099 30.7975 70.0099 30.1975C70.0099 29.6025 70.0924 29.065 70.2574 28.585C70.4274 28.1 70.6699 27.6875 70.9849 27.3475C71.2999 27.0075 71.6799 26.745 72.1249 26.56C72.5749 26.375 73.0799 26.2825 73.6399 26.2825ZM73.6399 33.0625C74.3899 33.0625 74.9499 32.8125 75.3199 32.3125C75.6899 31.8075 75.8749 31.105 75.8749 30.205C75.8749 29.3 75.6899 28.595 75.3199 28.09C74.9499 27.585 74.3899 27.3325 73.6399 27.3325C73.2599 27.3325 72.9274 27.3975 72.6424 27.5275C72.3624 27.6575 72.1274 27.845 71.9374 28.09C71.7524 28.335 71.6124 28.6375 71.5174 28.9975C71.4274 29.3525 71.3824 29.755 71.3824 30.205C71.3824 31.105 71.5674 31.8075 71.9374 32.3125C72.3124 32.8125 72.8799 33.0625 73.6399 33.0625ZM81.5517 30.2875C81.8217 30.2875 82.0592 30.25 82.2642 30.175C82.4692 30.1 82.6417 29.995 82.7817 29.86C82.9217 29.725 83.0267 29.565 83.0967 29.38C83.1667 29.19 83.2017 28.9825 83.2017 28.7575C83.2017 28.2925 83.0592 27.9225 82.7742 27.6475C82.4942 27.3725 82.0867 27.235 81.5517 27.235C81.0117 27.235 80.5992 27.3725 80.3142 27.6475C80.0342 27.9225 79.8942 28.2925 79.8942 28.7575C79.8942 28.9825 79.9292 29.19 79.9992 29.38C80.0742 29.565 80.1817 29.725 80.3217 29.86C80.4617 29.995 80.6342 30.1 80.8392 30.175C81.0442 30.25 81.2817 30.2875 81.5517 30.2875ZM83.9592 34.4125C83.9592 34.2275 83.9067 34.0775 83.8017 33.9625C83.6967 33.8475 83.5542 33.7575 83.3742 33.6925C83.1992 33.6275 82.9942 33.5825 82.7592 33.5575C82.5242 33.5275 82.2742 33.505 82.0092 33.49C81.7492 33.475 81.4842 33.46 81.2142 33.445C80.9442 33.43 80.6842 33.405 80.4342 33.37C80.1542 33.5 79.9242 33.665 79.7442 33.865C79.5692 34.06 79.4817 34.29 79.4817 34.555C79.4817 34.725 79.5242 34.8825 79.6092 35.0275C79.6992 35.1775 79.8342 35.305 80.0142 35.41C80.1942 35.52 80.4192 35.605 80.6892 35.665C80.9642 35.73 81.2867 35.7625 81.6567 35.7625C82.0167 35.7625 82.3392 35.73 82.6242 35.665C82.9092 35.6 83.1492 35.5075 83.3442 35.3875C83.5442 35.2675 83.6967 35.125 83.8017 34.96C83.9067 34.795 83.9592 34.6125 83.9592 34.4125ZM85.3167 26.7025V27.1975C85.3167 27.3625 85.2117 27.4675 85.0017 27.5125L84.1392 27.625C84.3092 27.955 84.3942 28.32 84.3942 28.72C84.3942 29.09 84.3217 29.4275 84.1767 29.7325C84.0367 30.0325 83.8417 30.29 83.5917 30.505C83.3417 30.72 83.0417 30.885 82.6917 31C82.3417 31.115 81.9617 31.1725 81.5517 31.1725C81.1967 31.1725 80.8617 31.13 80.5467 31.045C80.3867 31.145 80.2642 31.2525 80.1792 31.3675C80.0942 31.4775 80.0517 31.59 80.0517 31.705C80.0517 31.885 80.1242 32.0225 80.2692 32.1175C80.4192 32.2075 80.6142 32.2725 80.8542 32.3125C81.0942 32.3525 81.3667 32.3775 81.6717 32.3875C81.9817 32.3975 82.2967 32.415 82.6167 32.44C82.9417 32.46 83.2567 32.4975 83.5617 32.5525C83.8717 32.6075 84.1467 32.6975 84.3867 32.8225C84.6267 32.9475 84.8192 33.12 84.9642 33.34C85.1142 33.56 85.1892 33.845 85.1892 34.195C85.1892 34.52 85.1067 34.835 84.9417 35.14C84.7817 35.445 84.5492 35.715 84.2442 35.95C83.9392 36.19 83.5642 36.38 83.1192 36.52C82.6792 36.665 82.1817 36.7375 81.6267 36.7375C81.0717 36.7375 80.5867 36.6825 80.1717 36.5725C79.7567 36.4625 79.4117 36.315 79.1367 36.13C78.8617 35.945 78.6542 35.73 78.5142 35.485C78.3792 35.245 78.3117 34.9925 78.3117 34.7275C78.3117 34.3525 78.4292 34.035 78.6642 33.775C78.8992 33.515 79.2217 33.3075 79.6317 33.1525C79.4067 33.0525 79.2267 32.92 79.0917 32.755C78.9617 32.585 78.8967 32.3575 78.8967 32.0725C78.8967 31.9625 78.9167 31.85 78.9567 31.735C78.9967 31.615 79.0567 31.4975 79.1367 31.3825C79.2217 31.2625 79.3242 31.15 79.4442 31.045C79.5642 30.94 79.7042 30.8475 79.8642 30.7675C79.4892 30.5575 79.1967 30.28 78.9867 29.935C78.7767 29.585 78.6717 29.18 78.6717 28.72C78.6717 28.35 78.7417 28.015 78.8817 27.715C79.0267 27.41 79.2267 27.1525 79.4817 26.9425C79.7367 26.7275 80.0392 26.5625 80.3892 26.4475C80.7442 26.3325 81.1317 26.275 81.5517 26.275C81.8817 26.275 82.1892 26.3125 82.4742 26.3875C82.7592 26.4575 83.0192 26.5625 83.2542 26.7025H85.3167ZM88.0771 22.9525V34H86.7421V22.9525H88.0771ZM95.3271 29.3725C95.3271 29.0625 95.2821 28.78 95.1921 28.525C95.1071 28.265 94.9796 28.0425 94.8096 27.8575C94.6446 27.6675 94.4421 27.5225 94.2021 27.4225C93.9621 27.3175 93.6896 27.265 93.3846 27.265C92.7446 27.265 92.2371 27.4525 91.8621 27.8275C91.4921 28.1975 91.2621 28.7125 91.1721 29.3725H95.3271ZM96.4071 32.935C96.2421 33.135 96.0446 33.31 95.8146 33.46C95.5846 33.605 95.3371 33.725 95.0721 33.82C94.8121 33.915 94.5421 33.985 94.2621 34.03C93.9821 34.08 93.7046 34.105 93.4296 34.105C92.9046 34.105 92.4196 34.0175 91.9746 33.8425C91.5346 33.6625 91.1521 33.4025 90.8271 33.0625C90.5071 32.7175 90.2571 32.2925 90.0771 31.7875C89.8971 31.2825 89.8071 30.7025 89.8071 30.0475C89.8071 29.5175 89.8871 29.0225 90.0471 28.5625C90.2121 28.1025 90.4471 27.705 90.7521 27.37C91.0571 27.03 91.4296 26.765 91.8696 26.575C92.3096 26.38 92.8046 26.2825 93.3546 26.2825C93.8096 26.2825 94.2296 26.36 94.6146 26.515C95.0046 26.665 95.3396 26.885 95.6196 27.175C95.9046 27.46 96.1271 27.815 96.2871 28.24C96.4471 28.66 96.5271 29.14 96.5271 29.68C96.5271 29.89 96.5046 30.03 96.4596 30.1C96.4146 30.17 96.3296 30.205 96.2046 30.205H91.1271C91.1421 30.685 91.2071 31.1025 91.3221 31.4575C91.4421 31.8125 91.6071 32.11 91.8171 32.35C92.0271 32.585 92.2771 32.7625 92.5671 32.8825C92.8571 32.9975 93.1821 33.055 93.5421 33.055C93.8771 33.055 94.1646 33.0175 94.4046 32.9425C94.6496 32.8625 94.8596 32.7775 95.0346 32.6875C95.2096 32.5975 95.3546 32.515 95.4696 32.44C95.5896 32.36 95.6921 32.32 95.7771 32.32C95.8871 32.32 95.9721 32.3625 96.0321 32.4475L96.4071 32.935ZM103.347 32.17C103.592 32.5 103.86 32.7325 104.15 32.8675C104.44 33.0025 104.765 33.07 105.125 33.07C105.835 33.07 106.38 32.8175 106.76 32.3125C107.14 31.8075 107.33 31.0875 107.33 30.1525C107.33 29.6575 107.285 29.2325 107.195 28.8775C107.11 28.5225 106.985 28.2325 106.82 28.0075C106.655 27.7775 106.452 27.61 106.212 27.505C105.972 27.4 105.7 27.3475 105.395 27.3475C104.96 27.3475 104.577 27.4475 104.247 27.6475C103.922 27.8475 103.622 28.13 103.347 28.495V32.17ZM103.28 27.58C103.6 27.185 103.97 26.8675 104.39 26.6275C104.81 26.3875 105.29 26.2675 105.83 26.2675C106.27 26.2675 106.667 26.3525 107.022 26.5225C107.377 26.6875 107.68 26.935 107.93 27.265C108.18 27.59 108.372 27.995 108.507 28.48C108.642 28.965 108.71 29.5225 108.71 30.1525C108.71 30.7125 108.635 31.235 108.485 31.72C108.335 32.2 108.117 32.6175 107.832 32.9725C107.552 33.3225 107.207 33.6 106.797 33.805C106.392 34.005 105.935 34.105 105.425 34.105C104.96 34.105 104.56 34.0275 104.225 33.8725C103.895 33.7125 103.602 33.4925 103.347 33.2125V36.5725H102.005V26.4025H102.807C102.997 26.4025 103.115 26.495 103.16 26.68L103.28 27.58ZM111.793 22.9525V34H110.458V22.9525H111.793ZM118.075 30.58C117.46 30.6 116.935 30.65 116.5 30.73C116.07 30.805 115.718 30.905 115.443 31.03C115.173 31.155 114.975 31.3025 114.85 31.4725C114.73 31.6425 114.67 31.8325 114.67 32.0425C114.67 32.2425 114.703 32.415 114.768 32.56C114.833 32.705 114.92 32.825 115.03 32.92C115.145 33.01 115.278 33.0775 115.428 33.1225C115.583 33.1625 115.748 33.1825 115.923 33.1825C116.158 33.1825 116.373 33.16 116.568 33.115C116.763 33.065 116.945 32.995 117.115 32.905C117.29 32.815 117.455 32.7075 117.61 32.5825C117.77 32.4575 117.925 32.315 118.075 32.155V30.58ZM113.763 27.475C114.183 27.07 114.635 26.7675 115.12 26.5675C115.605 26.3675 116.143 26.2675 116.733 26.2675C117.158 26.2675 117.535 26.3375 117.865 26.4775C118.195 26.6175 118.473 26.8125 118.698 27.0625C118.923 27.3125 119.093 27.615 119.208 27.97C119.323 28.325 119.38 28.715 119.38 29.14V34H118.788C118.658 34 118.558 33.98 118.488 33.94C118.418 33.895 118.363 33.81 118.323 33.685L118.173 32.965C117.973 33.15 117.778 33.315 117.588 33.46C117.398 33.6 117.198 33.72 116.988 33.82C116.778 33.915 116.553 33.9875 116.313 34.0375C116.078 34.0925 115.815 34.12 115.525 34.12C115.23 34.12 114.953 34.08 114.693 34C114.433 33.915 114.205 33.79 114.01 33.625C113.82 33.46 113.668 33.2525 113.553 33.0025C113.443 32.7475 113.388 32.4475 113.388 32.1025C113.388 31.8025 113.47 31.515 113.635 31.24C113.8 30.96 114.068 30.7125 114.438 30.4975C114.808 30.2825 115.29 30.1075 115.885 29.9725C116.48 29.8325 117.21 29.7525 118.075 29.7325V29.14C118.075 28.55 117.948 28.105 117.693 27.805C117.438 27.5 117.065 27.3475 116.575 27.3475C116.245 27.3475 115.968 27.39 115.743 27.475C115.523 27.555 115.33 27.6475 115.165 27.7525C115.005 27.8525 114.865 27.945 114.745 28.03C114.63 28.11 114.515 28.15 114.4 28.15C114.31 28.15 114.233 28.1275 114.168 28.0825C114.103 28.0325 114.048 27.9725 114.003 27.9025L113.763 27.475ZM127.793 26.4025L123.556 36.2425C123.511 36.3425 123.453 36.4225 123.383 36.4825C123.318 36.5425 123.216 36.5725 123.076 36.5725H122.086L123.473 33.5575L120.338 26.4025H121.493C121.608 26.4025 121.698 26.4325 121.763 26.4925C121.833 26.5475 121.881 26.61 121.906 26.68L123.938 31.465C124.018 31.675 124.086 31.895 124.141 32.125C124.211 31.89 124.286 31.6675 124.366 31.4575L126.338 26.68C126.368 26.6 126.418 26.535 126.488 26.485C126.563 26.43 126.646 26.4025 126.736 26.4025H127.793Z" fill="white"/>
<path d="M15.5483 5.46738C15.1683 5.91802 14.9765 6.49492 15.012 7.08049V32.5676C14.9765 33.1532 15.1683 33.7301 15.5483 34.1808L15.6299 34.2614L30.0752 19.9969V19.6628L15.6299 5.38672L15.5483 5.46738Z" fill="url(#paint0_linear_415_10986)"/>
<path d="M34.8543 24.7576L30.0742 19.9989V19.6647L34.8543 14.8945L34.9593 14.9521L40.6838 18.1668C42.316 19.0771 42.316 20.575 40.6838 21.4968L34.9826 24.7L34.8543 24.7576Z" fill="url(#paint1_linear_415_10986)"/>
<path d="M34.9938 24.6866L30.0738 19.8242L15.5469 34.1809C15.8796 34.4699 16.304 34.635 16.7468 34.6477C17.1896 34.6603 17.6229 34.5196 17.9719 34.25L35.0055 24.6866" fill="url(#paint2_linear_415_10986)"/>
<path d="M34.9937 14.9618L17.9602 5.3984C17.6112 5.1288 17.1778 4.98816 16.7351 5.00078C16.2923 5.0134 15.8679 5.1785 15.5352 5.46754L30.0737 19.8242L34.9937 14.9618Z" fill="url(#paint3_linear_415_10986)"/>
<path opacity="0.2" d="M34.8539 24.582L17.9603 34.0878C17.6237 34.3365 17.2147 34.4709 16.7944 34.4709C16.3741 34.4709 15.9651 34.3365 15.6285 34.0878L15.5469 34.1685L15.6285 34.2491C15.9643 34.4996 16.3736 34.6351 16.7944 34.6351C17.2151 34.6351 17.6244 34.4996 17.9603 34.2491L34.9938 24.6857L34.8539 24.582Z" fill="black"/>
<path opacity="0.12" d="M15.5483 34.0196C15.1683 33.569 14.9765 32.9921 15.012 32.4065V32.5793C14.9765 33.1649 15.1683 33.7418 15.5483 34.1924L15.6299 34.1118L15.5483 34.0196ZM40.6848 21.3221L34.8553 24.5829L34.9603 24.6866L40.6848 21.4834C41.0096 21.3326 41.2884 21.0998 41.4931 20.8085C41.6978 20.5172 41.8211 20.1777 41.8506 19.8242C41.7851 20.1454 41.6459 20.4474 41.4438 20.707C41.2417 20.9667 40.982 21.1771 40.6848 21.3221Z" fill="black"/>
<path opacity="0.25" d="M17.9613 5.55781L40.6844 18.3244C40.9817 18.4694 41.2413 18.6799 41.4435 18.9395C41.6456 19.1992 41.7847 19.5012 41.8503 19.8223C41.8208 19.4689 41.6975 19.1293 41.4928 18.838C41.2881 18.5467 41.0092 18.3139 40.6844 18.1631L17.9613 5.39649C16.3291 4.48624 15 5.24671 15 7.09026V7.2631C15.035 5.40802 16.3408 4.64755 17.9613 5.55781Z" fill="white"/>
<defs>
<linearGradient id="paint0_linear_415_10986" x1="28.7928" y1="6.81547" x2="9.4598" y2="26.3777" gradientUnits="userSpaceOnUse">
<stop stop-color="#00A0FF"/>
<stop offset="0.01" stop-color="#00A1FF"/>
<stop offset="0.26" stop-color="#00BEFF"/>
<stop offset="0.51" stop-color="#00D2FF"/>
<stop offset="0.76" stop-color="#00DFFF"/>
<stop offset="1" stop-color="#00E3FF"/>
</linearGradient>
<linearGradient id="paint1_linear_415_10986" x1="42.8173" y1="19.826" x2="14.6146" y2="19.826" gradientUnits="userSpaceOnUse">
<stop stop-color="#FFE000"/>
<stop offset="0.41" stop-color="#FFBD00"/>
<stop offset="0.78" stop-color="#FFA500"/>
<stop offset="1" stop-color="#FF9C00"/>
</linearGradient>
<linearGradient id="paint2_linear_415_10986" x1="32.3239" y1="22.4743" x2="6.10106" y2="48.9965" gradientUnits="userSpaceOnUse">
<stop stop-color="#FF3A44"/>
<stop offset="1" stop-color="#C31162"/>
</linearGradient>
<linearGradient id="paint3_linear_415_10986" x1="11.8859" y1="-3.01281" x2="23.5917" y2="8.83174" gradientUnits="userSpaceOnUse">
<stop stop-color="#32A071"/>
<stop offset="0.07" stop-color="#2DA771"/>
<stop offset="0.48" stop-color="#15CF74"/>
<stop offset="0.8" stop-color="#06E775"/>
<stop offset="1" stop-color="#00F076"/>
</linearGradient>
</defs>
</svg>
