<svg width="22" height="16" viewBox="0 0 22 16" fill="none" xmlns="http://www.w3.org/2000/svg">
<path d="M21.5322 5.29019L17.3285 1.29019C17.2305 1.19695 17.1141 1.12299 16.9861 1.07253C16.8581 1.02207 16.7209 0.996094 16.5823 0.996094C16.3024 0.996094 16.034 1.10188 15.8361 1.29019C15.6382 1.47849 15.5271 1.73388 15.5271 2.00019C15.5271 2.26649 15.6382 2.52188 15.8361 2.71019L18.2533 5.00019H6.07304C5.79431 5.00019 5.52701 5.10554 5.32992 5.29308C5.13283 5.48062 5.02211 5.73497 5.02211 6.00019C5.02211 6.2654 5.13283 6.51976 5.32992 6.70729C5.52701 6.89483 5.79431 7.00019 6.07304 7.00019H20.786C20.9935 6.9992 21.196 6.9398 21.3681 6.82946C21.5401 6.71913 21.674 6.5628 21.7529 6.38019C21.8333 6.19807 21.8553 5.99736 21.816 5.80337C21.7768 5.60938 21.678 5.43081 21.5322 5.29019V5.29019ZM16.5823 9.00019H1.86933C1.66185 9.00117 1.45932 9.06057 1.28726 9.17091C1.11521 9.28124 0.981321 9.43757 0.902481 9.62019C0.822001 9.8023 0.800013 10.003 0.83929 10.197C0.878568 10.391 0.977351 10.5696 1.12318 10.7102L5.32688 14.7102C5.42458 14.8039 5.54081 14.8783 5.66888 14.9291C5.79694 14.9798 5.9343 15.006 6.07304 15.006C6.21177 15.006 6.34913 14.9798 6.4772 14.9291C6.60526 14.8783 6.7215 14.8039 6.8192 14.7102C6.9177 14.6172 6.99588 14.5066 7.04923 14.3848C7.10259 14.2629 7.13006 14.1322 7.13006 14.0002C7.13006 13.8682 7.10259 13.7375 7.04923 13.6156C6.99588 13.4937 6.9177 13.3831 6.8192 13.2902L4.40206 11.0002H16.5823C16.861 11.0002 17.1283 10.8948 17.3254 10.7073C17.5225 10.5198 17.6332 10.2654 17.6332 10.0002C17.6332 9.73497 17.5225 9.48062 17.3254 9.29308C17.1283 9.10554 16.861 9.00019 16.5823 9.00019Z" fill="black"/>
</svg>
