<svg width="20" height="18" viewBox="0 0 20 18" fill="none" xmlns="http://www.w3.org/2000/svg">
<path d="M13.7521 11H12.8983L12.5957 10.73C13.6549 9.59 14.2925 8.11 14.2925 6.5C14.2925 2.91 11.1474 0 7.26737 0C3.38731 0 0.242188 2.91 0.242188 6.5C0.242188 10.09 3.38731 13 7.26737 13C9.00745 13 10.607 12.41 11.8391 11.43L12.131 11.71V12.5L17.5349 17.49L19.1453 16L13.7521 11ZM7.26737 11C4.57618 11 2.40378 8.99 2.40378 6.5C2.40378 4.01 4.57618 2 7.26737 2C9.95855 2 12.131 4.01 12.131 6.5C12.131 8.99 9.95855 11 7.26737 11Z" fill="black"/>
</svg>
