<svg width="19" height="18" viewBox="0 0 19 18" fill="none" xmlns="http://www.w3.org/2000/svg">
<path fill-rule="evenodd" clip-rule="evenodd" d="M9.56717 0.646484C9.87064 0.646484 10.1478 0.818281 10.2821 1.08965L12.5604 5.69249L17.6555 6.43514C17.9557 6.4789 18.205 6.68881 18.2986 6.97664C18.3922 7.26447 18.3138 7.58032 18.0964 7.79144L14.4104 11.3717L15.2803 16.4298C15.3316 16.7281 15.2086 17.0295 14.9631 17.2074C14.7175 17.3853 14.392 17.4087 14.1234 17.2679L9.56717 14.8785L5.01097 17.2679C4.74235 17.4087 4.41682 17.3853 4.17127 17.2074C3.92572 17.0295 3.80274 16.7281 3.85405 16.4298L4.72397 11.3717L1.0379 7.79144C0.820537 7.58032 0.742185 7.26447 0.83577 6.97664C0.929355 6.68881 1.17865 6.4789 1.47888 6.43514L6.57391 5.69249L8.85223 1.08965C8.98655 0.818281 9.2637 0.646484 9.56717 0.646484ZM9.56717 3.23788L7.81846 6.77075C7.70242 7.00518 7.47824 7.16775 7.21883 7.20556L3.30712 7.77573L6.13698 10.5244C6.32504 10.707 6.41088 10.9703 6.36651 11.2284L5.69883 15.1105L9.19607 13.2764C9.42838 13.1546 9.70595 13.1546 9.93827 13.2764L13.4355 15.1105L12.7678 11.2284C12.7235 10.9703 12.8093 10.707 12.9974 10.5244L15.8272 7.77573L11.9155 7.20556C11.6561 7.16775 11.4319 7.00518 11.3159 6.77075L9.56717 3.23788Z" fill="#393939"/>
</svg>
