<svg width="53" height="54" viewBox="0 0 53 54" fill="none" xmlns="http://www.w3.org/2000/svg">
<path fill-rule="evenodd" clip-rule="evenodd" d="M25.5986 54C40.5103 54 52.5986 41.9117 52.5986 27C52.5986 12.0883 40.5103 0 25.5986 0C13.6969 0 3.59379 7.70067 6.419e-07 18.3913C3.3958 10.0773 11.563 4.21875 21.0986 4.21875C33.6803 4.21875 43.8798 14.4183 43.8798 27C43.8798 39.5817 33.6803 49.7812 21.0986 49.7812C11.563 49.7812 3.3958 43.9227 0 35.6087C3.59379 46.2993 13.6969 54 25.5986 54Z" fill="#39B67B"/>
<path fill-rule="evenodd" clip-rule="evenodd" d="M33.5439 15.9698C32.7085 15.2688 31.463 15.3778 30.762 16.2132L18.0764 31.3313L12.3023 26.4862C11.48 25.7963 10.2541 25.9035 9.56413 26.7258C8.87416 27.5481 8.98141 28.774 9.80368 29.4639L17.0221 35.5209C17.3926 35.8318 17.8452 35.9808 18.2937 35.9755C18.8958 36.0109 19.5064 35.771 19.9239 35.2735L33.7873 18.7517C34.4883 17.9163 34.3793 16.6708 33.5439 15.9698Z" fill="#39B67B"/>
</svg>
