<svg width="16" height="13" viewBox="0 0 16 13" fill="none" xmlns="http://www.w3.org/2000/svg">
<path d="M8.00065 3.99935L5.33398 6.66602L7.33398 6.66602L7.33398 12.666L8.66732 12.666L8.66732 6.66602L10.6673 6.66602L8.00065 3.99935ZM2.00065 12.666L6.00065 12.666L6.00065 11.3393L2.00065 11.3394L2.00065 1.98602L14.0007 1.98602L14.0007 11.3393L10.0007 11.3393L10.0007 12.666L14.0007 12.666C14.734 12.666 15.334 12.066 15.334 11.3327L15.334 1.99935C15.334 1.26602 14.734 0.666016 14.0007 0.666016L2.00065 0.666017C1.26732 0.666017 0.667317 1.26602 0.667317 1.99935L0.667318 11.3327C0.667318 12.066 1.26732 12.666 2.00065 12.666Z" fill="#323232"/>
</svg>
