<svg width="26" height="26" viewBox="0 0 26 26" fill="none" xmlns="http://www.w3.org/2000/svg">
<circle cx="13" cy="13" r="12" stroke="#EB5757" stroke-width="2" stroke-dasharray="5 5"/>
<path d="M14.024 10.792V19H12.04V10.792H14.024ZM14.296 8.4C14.296 8.57067 14.2613 8.73067 14.192 8.88C14.1227 9.02933 14.0293 9.16 13.912 9.272C13.8 9.384 13.6667 9.47467 13.512 9.544C13.3573 9.608 13.192 9.64 13.016 9.64C12.8453 9.64 12.6827 9.608 12.528 9.544C12.3787 9.47467 12.248 9.384 12.136 9.272C12.024 9.16 11.9333 9.02933 11.864 8.88C11.8 8.73067 11.768 8.57067 11.768 8.4C11.768 8.224 11.8 8.05867 11.864 7.904C11.9333 7.74933 12.024 7.616 12.136 7.504C12.248 7.392 12.3787 7.304 12.528 7.24C12.6827 7.17067 12.8453 7.136 13.016 7.136C13.192 7.136 13.3573 7.17067 13.512 7.24C13.6667 7.304 13.8 7.392 13.912 7.504C14.0293 7.616 14.1227 7.74933 14.192 7.904C14.2613 8.05867 14.296 8.224 14.296 8.4Z" fill="#FF5349"/>
</svg>
