<svg width="77" height="39" viewBox="0 0 77 39" fill="none" xmlns="http://www.w3.org/2000/svg">
<path d="M21.4754 19.042H17.981L13.8527 7.30253L9.73275 19.042H6.2383L0 0.979991H4.30343L8.08978 13.1229L12.1847 0.922363H15.6291L19.724 13.1229L23.5104 0.979991H27.6804L21.4754 19.042Z" fill="#FF6634"/>
<path d="M40.3608 18.9611L38.6928 14.9354H30.97L29.302 18.9611H25.207L33.0299 0.849609H36.7412L44.5641 18.9611H40.3608ZM34.8314 5.59151L32.4044 11.4119H37.2583L34.8314 5.59151Z" fill="#FF6634"/>
<path d="M52.6275 11.766V18.9612H48.6077V11.8483L41.5938 0.981445H46.2892L50.6426 8.17663L55.0461 0.981445H59.6164L52.6275 11.766Z" fill="#FF6634"/>
<path d="M71.8352 18.9611L70.1672 14.9354H62.4444L60.7764 18.9611H56.7148L64.5044 0.849609H68.2073L76.0386 18.9611H71.8352ZM66.3058 5.59151L63.8789 11.4119H68.7328L66.3058 5.59151Z" fill="#FF6634"/>
<path d="M65.4321 25.606C65.0711 25.6049 64.7134 25.6741 64.3796 25.8098C64.0457 25.9454 63.7422 26.1447 63.4866 26.3963C63.2309 26.648 63.028 26.9469 62.8896 27.2761C62.7512 27.6052 62.6799 27.9581 62.68 28.3145V33.7808C62.6594 34.1496 62.7152 34.5187 62.844 34.8655C62.9728 35.2122 63.1718 35.5295 63.429 35.7977C63.6862 36.066 63.9962 36.2797 64.3399 36.4257C64.6836 36.5717 65.0538 36.647 65.428 36.647C65.8021 36.647 66.1724 36.5717 66.5161 36.4257C66.8598 36.2797 67.1697 36.066 67.4269 35.7977C67.6841 35.5295 67.8832 35.2122 68.012 34.8655C68.1408 34.5187 68.1966 34.1496 68.176 33.7808V28.3145C68.176 27.5961 67.8869 26.9072 67.3723 26.3993C66.8578 25.8913 66.1599 25.606 65.4321 25.606Z" fill="white"/>
<path d="M65.4275 25.2182C66.192 25.2203 66.9295 25.4973 67.502 25.9973C68.0746 26.4974 68.443 27.1862 68.5383 27.9349H71.499V23.9751H59.3477V27.9349H62.3167C62.4103 27.1855 62.7782 26.4956 63.3511 25.9953C63.924 25.4949 64.6625 25.2186 65.4275 25.2182Z" fill="url(#paint0_linear_415_52997)"/>
<path d="M71.8789 27.9349H75.9822V25.9756C75.9822 25.445 75.7687 24.9362 75.3886 24.561C75.0085 24.1859 74.493 23.9751 73.9556 23.9751H71.8789V27.9349Z" fill="url(#paint1_linear_415_52997)"/>
<path d="M65.4275 36.9081C64.6625 36.9078 63.924 36.6314 63.3511 36.131C62.7782 35.6307 62.4103 34.9409 62.3167 34.1914H59.3477V38.1512H71.499V34.1914H68.5383C68.443 34.9401 68.0746 35.629 67.502 36.129C66.9295 36.629 66.192 36.906 65.4275 36.9081Z" fill="url(#paint2_linear_415_52997)"/>
<path d="M75.9812 28.313H68.5586V33.8123H75.9812V28.313Z" fill="url(#paint3_linear_415_52997)"/>
<path d="M58.9582 34.1914H54.8633V36.159C54.8633 36.6873 55.0759 37.1941 55.4544 37.5677C55.8329 37.9413 56.3463 38.1512 56.8816 38.1512H58.9582V34.1914Z" fill="url(#paint4_linear_415_52997)"/>
<path d="M71.8789 34.1914V38.1512H73.9556C74.4916 38.1512 75.0058 37.9416 75.3856 37.5682C75.7655 37.1948 75.98 36.6881 75.9822 36.159V34.1914H71.8789Z" fill="url(#paint5_linear_415_52997)"/>
<path d="M54.8633 33.8123H62.2859V28.313H54.8633V33.8123Z" fill="url(#paint6_linear_415_52997)"/>
<path d="M58.9582 27.9349V23.9751H56.8816C56.6158 23.9751 56.3527 24.0269 56.1073 24.1275C55.8619 24.2282 55.639 24.3757 55.4515 24.5615C55.264 24.7474 55.1155 24.968 55.0145 25.2107C54.9136 25.4533 54.8622 25.7133 54.8633 25.9756V27.9349H58.9582Z" fill="url(#paint7_linear_415_52997)"/>
<path d="M6.48047 26.3234H9.35617C10.3692 26.2522 11.3832 26.4472 12.294 26.8884C12.5366 27.0665 12.74 27.291 12.8919 27.5483C13.0439 27.8056 13.1413 28.0904 13.1783 28.3857C13.2154 28.6809 13.1912 28.9805 13.1074 29.2663C13.0235 29.5522 12.8817 29.8184 12.6904 30.049C12.2986 30.4448 11.7797 30.6956 11.2215 30.759V30.8583C12.7759 31.1026 13.5531 31.8584 13.5531 33.1486C13.5601 33.517 13.4786 33.8818 13.3152 34.2134C13.1518 34.545 12.9111 34.8341 12.6127 35.0573C11.8605 35.5774 10.9505 35.8305 10.0323 35.7749H6.48047V26.3234ZM7.66184 30.3697H9.61265C10.2471 30.4212 10.8833 30.2941 11.4469 30.0032C11.6383 29.8619 11.7895 29.6746 11.8861 29.4594C11.9827 29.2442 12.0215 29.0082 11.9987 28.7741C12.0149 28.546 11.966 28.318 11.8576 28.1157C11.7491 27.9134 11.5853 27.7448 11.3847 27.6289C10.7753 27.3506 10.1045 27.2273 9.43389 27.2701H7.66184V30.3697ZM7.66184 31.3011V34.8358H9.79141C10.4423 34.881 11.0915 34.7262 11.649 34.3931C11.8614 34.2299 12.0293 34.0176 12.1378 33.7752C12.2463 33.5327 12.292 33.2676 12.2707 33.0036C12.289 32.7525 12.2397 32.5011 12.1279 32.2747C12.016 32.0482 11.8455 31.8546 11.6334 31.7133C11.0381 31.3991 10.3646 31.2562 9.69037 31.3011H7.66184Z" fill="#FF6634"/>
<path d="M22.7522 36.2338L22.5282 35.1786H22.476C22.1829 35.5795 21.8073 35.9023 21.3784 36.1219C20.9449 36.2987 20.4833 36.3829 20.0196 36.3697C19.4031 36.4083 18.7947 36.2036 18.3098 35.7942C18.1016 35.5941 17.9379 35.3467 17.8306 35.07C17.7234 34.7934 17.6754 34.4945 17.6901 34.1954C17.6901 32.7032 18.8747 31.9198 21.244 31.8452H22.4909V31.3256C22.527 30.861 22.3931 30.3996 22.1176 30.0386C21.9569 29.8859 21.7686 29.7702 21.5644 29.6987C21.3601 29.6272 21.1444 29.6014 20.9305 29.6229C20.2083 29.6486 19.5001 29.8423 18.8548 30.1905L18.5114 29.3271C19.2832 28.912 20.134 28.6932 20.9977 28.6876C21.6891 28.627 22.378 28.834 22.9389 29.2712C23.1656 29.518 23.3397 29.8144 23.4492 30.14C23.5588 30.4657 23.6012 30.8129 23.5735 31.1577V36.2258L22.7522 36.2338ZM20.2436 35.4345C20.8346 35.4703 21.4163 35.2645 21.8712 34.8589C22.0711 34.6535 22.2273 34.4043 22.3291 34.1284C22.4309 33.8525 22.4759 33.5563 22.461 33.2601V32.5886L21.3486 32.6366C20.6903 32.6186 20.0368 32.7607 19.4372 33.0523C19.25 33.1675 19.0964 33.3362 18.9936 33.5394C18.8908 33.7427 18.8427 33.9726 18.8548 34.2034C18.8439 34.3778 18.8714 34.5525 18.9349 34.7136C18.9984 34.8746 19.0963 35.0175 19.2207 35.1307C19.5181 35.3572 19.8793 35.4673 20.2436 35.4424V35.4345Z" fill="#FF6634"/>
<path d="M33.5937 35.7748V31.2688C33.6264 31.0396 33.6028 30.8063 33.5248 30.5872C33.4468 30.3681 33.3164 30.169 33.1438 30.0054C32.9713 29.8419 32.7612 29.7183 32.53 29.6444C32.2988 29.5704 32.0527 29.5481 31.8109 29.5791C31.4851 29.5524 31.1571 29.5915 30.8484 29.6938C30.5398 29.796 30.2575 29.9591 30.0202 30.1723C29.5851 30.7355 29.3822 31.4299 29.4497 32.1249V35.7823H28.3008V28.8055H29.2595L29.4497 29.7593H29.5052C29.7595 29.4076 30.114 29.1316 30.5273 28.9632C30.9741 28.7769 31.4575 28.6822 31.9456 28.6854C32.7086 28.6313 33.4655 28.8481 34.0691 29.2937C34.3235 29.5516 34.5178 29.8575 34.6393 30.1913C34.7608 30.5251 34.8068 30.8795 34.7743 31.2312V35.7823L33.5937 35.7748Z" fill="#FF6634"/>
<path d="M41.1858 32.1318C41.4617 31.7704 41.7575 31.4249 42.0718 31.0971L44.452 28.6854H45.781L42.7776 31.7286L45.9763 35.7837H44.6322L42.0268 32.4438L41.1858 33.1285V35.7685H40.082V25.7183H41.1858V31.0439C41.1858 31.2797 41.1858 31.6449 41.1332 32.1395L41.1858 32.1318Z" fill="#FF6634"/>
<defs>
<linearGradient id="paint0_linear_415_52997" x1="830.594" y1="182.012" x2="927.694" y2="-5.36138" gradientUnits="userSpaceOnUse">
<stop stop-color="#FF4400"/>
<stop offset="0.5" stop-color="white"/>
<stop offset="1" stop-color="#FF6700"/>
</linearGradient>
<linearGradient id="paint1_linear_415_52997" x1="344.172" y1="200.227" x2="452.934" y2="129.382" gradientUnits="userSpaceOnUse">
<stop stop-color="#FF4400"/>
<stop offset="0.5" stop-color="#FFB40D"/>
<stop offset="1" stop-color="#FF6700"/>
</linearGradient>
<linearGradient id="paint2_linear_415_52997" x1="898.52" y1="227.431" x2="995.692" y2="39.9877" gradientUnits="userSpaceOnUse">
<stop stop-color="#FF4400"/>
<stop offset="0.5" stop-color="#FFB40D"/>
<stop offset="1" stop-color="#FF6700"/>
</linearGradient>
<linearGradient id="paint3_linear_415_52997" x1="577.673" y1="292.609" x2="740.605" y2="154.37" gradientUnits="userSpaceOnUse">
<stop stop-color="#FF4400"/>
<stop offset="0.5" stop-color="white"/>
<stop offset="1" stop-color="#FF6700"/>
</linearGradient>
<linearGradient id="paint4_linear_415_52997" x1="325.865" y1="209.255" x2="434.495" y2="138.573" gradientUnits="userSpaceOnUse">
<stop stop-color="#FF4400"/>
<stop offset="0.5" stop-color="#FFB40D"/>
<stop offset="1" stop-color="#FF6700"/>
</linearGradient>
<linearGradient id="paint5_linear_415_52997" x1="366.124" y1="244.101" x2="474.845" y2="173.257" gradientUnits="userSpaceOnUse">
<stop stop-color="#FF4400"/>
<stop offset="0.5" stop-color="#FFB40D"/>
<stop offset="1" stop-color="#FF6700"/>
</linearGradient>
<linearGradient id="paint6_linear_415_52997" x1="529.463" y1="251.914" x2="692.319" y2="113.688" gradientUnits="userSpaceOnUse">
<stop stop-color="#FF4400"/>
<stop offset="0.5" stop-color="#FFB40D"/>
<stop offset="1" stop-color="#FF6700"/>
</linearGradient>
<linearGradient id="paint7_linear_415_52997" x1="303.918" y1="165.341" x2="412.59" y2="94.6977" gradientUnits="userSpaceOnUse">
<stop stop-color="#FF4400"/>
<stop offset="0.5" stop-color="#FFB40D"/>
<stop offset="1" stop-color="#FF6700"/>
</linearGradient>
</defs>
</svg>
