<svg width="18" height="20" viewBox="0 0 18 20" fill="none" xmlns="http://www.w3.org/2000/svg">
<path d="M12.8415 14.29L10.4349 16.59V5C10.4349 4.73478 10.3242 4.48043 10.1271 4.29289C9.93 4.10536 9.66269 4 9.38397 4C9.10525 4 8.83794 4.10536 8.64086 4.29289C8.44377 4.48043 8.33305 4.73478 8.33305 5V16.59L5.92642 14.29C5.72853 14.1017 5.46013 13.9959 5.18027 13.9959C4.9004 13.9959 4.632 14.1017 4.43411 14.29C4.23622 14.4783 4.12504 14.7337 4.12504 15C4.12504 15.2663 4.23622 15.5217 4.43411 15.71L8.63781 19.71C8.73776 19.801 8.85562 19.8724 8.98462 19.92C9.11042 19.9729 9.24644 20.0002 9.38397 20.0002C9.52151 20.0002 9.65753 19.9729 9.78332 19.92C9.91233 19.8724 10.0302 19.801 10.1301 19.71L14.3338 15.71C14.5317 15.5217 14.6429 15.2663 14.6429 15C14.6429 14.7337 14.5317 14.4783 14.3338 14.29C14.2358 14.1968 14.1195 14.1228 13.9915 14.0723C13.8635 14.0219 13.7263 13.9959 13.5877 13.9959C13.3078 13.9959 13.0394 14.1017 12.8415 14.29ZM16.7405 0H2.02749C1.74877 0 1.48146 0.105357 1.28437 0.292893C1.08728 0.48043 0.976563 0.734784 0.976562 1C0.976563 1.26522 1.08728 1.51957 1.28437 1.70711C1.48146 1.89464 1.74877 2 2.02749 2H16.7405C17.0192 2 17.2865 1.89464 17.4836 1.70711C17.6807 1.51957 17.7914 1.26522 17.7914 1C17.7914 0.734784 17.6807 0.48043 17.4836 0.292893C17.2865 0.105357 17.0192 0 16.7405 0Z" fill="black"/>
</svg>
