<svg width="30" height="30" viewBox="0 0 30 30" fill="none" xmlns="http://www.w3.org/2000/svg">
<rect x="1" y="1" width="28" height="28" rx="3" fill="#F1F7FA" stroke="#064A72" stroke-width="2"/>
<path d="M15.71 19.29L15.56 19.17C15.5043 19.1322 15.4437 19.1019 15.38 19.08L15.2 19C15.0378 18.9661 14.8698 18.973 14.7109 19.0201C14.5521 19.0673 14.4074 19.1531 14.29 19.27C14.2017 19.3672 14.1306 19.4788 14.08 19.6C14.0043 19.7822 13.9842 19.9827 14.0223 20.1763C14.0603 20.3699 14.1547 20.5479 14.2937 20.688C14.4327 20.828 14.61 20.9238 14.8033 20.9633C14.9966 21.0028 15.1972 20.9843 15.38 20.91C15.4995 20.852 15.6105 20.778 15.71 20.69C15.8488 20.5494 15.9428 20.3708 15.9801 20.1768C16.0175 19.9828 15.9966 19.7821 15.92 19.6C15.8701 19.4844 15.7989 19.3792 15.71 19.29ZM19 5H11C10.2044 5 9.44129 5.31607 8.87868 5.87868C8.31607 6.44129 8 7.20435 8 8V22C8 22.7956 8.31607 23.5587 8.87868 24.1213C9.44129 24.6839 10.2044 25 11 25H19C19.7956 25 20.5587 24.6839 21.1213 24.1213C21.6839 23.5587 22 22.7956 22 22V8C22 7.20435 21.6839 6.44129 21.1213 5.87868C20.5587 5.31607 19.7956 5 19 5ZM20 22C20 22.2652 19.8946 22.5196 19.7071 22.7071C19.5196 22.8946 19.2652 23 19 23H11C10.7348 23 10.4804 22.8946 10.2929 22.7071C10.1054 22.5196 10 22.2652 10 22V8C10 7.73478 10.1054 7.48043 10.2929 7.29289C10.4804 7.10536 10.7348 7 11 7H19C19.2652 7 19.5196 7.10536 19.7071 7.29289C19.8946 7.48043 20 7.73478 20 8V22Z" fill="black"/>
</svg>
