<svg width="30" height="30" viewBox="0 0 30 30" fill="none" xmlns="http://www.w3.org/2000/svg">
<rect x="1" y="1" width="28" height="28" rx="3" fill="#F1F7FA" stroke="#064A72" stroke-width="2"/>
<path d="M24.0618 15.2782C24.0547 13.7768 23.4545 12.339 22.3918 11.2782L17.0018 5.80824C16.4712 5.2782 15.7519 4.98047 15.0018 4.98047C14.2518 4.98047 13.5325 5.2782 13.0018 5.80824L7.61184 11.2282C6.54922 12.289 5.94894 13.7268 5.94184 15.2282C5.93255 15.9843 6.07378 16.7347 6.35733 17.4357C6.64087 18.1367 7.06105 18.7742 7.5934 19.3112C8.12574 19.8482 8.75961 20.2739 9.45809 20.5636C10.1566 20.8532 10.9057 21.001 11.6618 20.9982C11.4105 21.861 10.9927 22.6662 10.4318 23.3682C10.3108 23.5172 10.2352 23.6978 10.2141 23.8885C10.1929 24.0792 10.227 24.272 10.3124 24.4438C10.3978 24.6157 10.5309 24.7593 10.6957 24.8576C10.8605 24.9559 11.0501 25.0047 11.2418 24.9982H18.7618C18.9511 24.9989 19.1366 24.9458 19.2969 24.8452C19.4572 24.7446 19.5856 24.6006 19.6673 24.4299C19.749 24.2592 19.7805 24.0688 19.7583 23.8809C19.7361 23.693 19.6611 23.5152 19.5418 23.3682C18.9801 22.6667 18.5622 21.8614 18.3118 20.9982C19.0658 21.0062 19.8138 20.8642 20.5124 20.5806C21.211 20.297 21.8462 19.8773 22.3812 19.346C22.9162 18.8147 23.3403 18.1824 23.6288 17.4858C23.9173 16.7892 24.0645 16.0422 24.0618 15.2882V15.2782ZM21.0018 17.9082C20.5289 18.374 19.9417 18.707 19.2992 18.8738C18.6567 19.0406 17.9816 19.0352 17.3418 18.8582C17.2853 18.8534 17.2284 18.8534 17.1718 18.8582H16.9718C16.897 18.8723 16.8234 18.8923 16.7518 18.9182H16.6018C16.5541 18.9494 16.5105 18.9864 16.4718 19.0282C16.4086 19.0663 16.3513 19.1135 16.3018 19.1682C16.2857 19.2069 16.2656 19.2438 16.2418 19.2782C16.1979 19.3528 16.1579 19.4296 16.1218 19.5082C16.1169 19.5681 16.1169 19.6283 16.1218 19.6882C16.1218 19.7482 16.1218 19.8082 16.1218 19.8682C16.2003 20.9531 16.4783 22.0142 16.9418 22.9982H13.0618C13.5356 22.0602 13.8338 21.0435 13.9418 19.9982C13.9418 19.9382 13.9418 19.8782 13.9418 19.8082C13.9468 19.7483 13.9468 19.6881 13.9418 19.6282C13.9084 19.5432 13.8648 19.4626 13.8118 19.3882C13.7956 19.3528 13.7755 19.3193 13.7518 19.2882C13.7083 19.2314 13.6539 19.1838 13.5918 19.1482C13.551 19.1087 13.5076 19.072 13.4618 19.0382H13.3218C13.2487 19.0045 13.1713 18.9809 13.0918 18.9682H12.9018C12.8419 18.9633 12.7817 18.9633 12.7218 18.9682C12.0636 19.1397 11.3715 19.1318 10.7173 18.9454C10.0632 18.759 9.47083 18.4009 9.00184 17.9082C8.30692 17.2089 7.91533 16.2641 7.91184 15.2782C7.9103 14.7895 8.00587 14.3054 8.19299 13.8539C8.3801 13.4024 8.65504 12.9926 9.00184 12.6482L14.4018 7.22825C14.5531 7.08103 14.7558 6.99865 14.9668 6.99865C15.1779 6.99865 15.3806 7.08103 15.5318 7.22825L21.0018 12.6482C21.3486 12.9926 21.6236 13.4024 21.8107 13.8539C21.9978 14.3054 22.0934 14.7895 22.0918 15.2782C22.0851 16.2635 21.694 17.2071 21.0018 17.9082Z" fill="black"/>
</svg>
