<svg width="30" height="30" viewBox="0 0 30 30" fill="none" xmlns="http://www.w3.org/2000/svg">
<rect x="1" y="1" width="28" height="28" rx="3" fill="#F1F7FA" stroke="#064A72" stroke-width="2"/>
<path d="M15.0017 17.999C14.4084 17.999 13.8284 18.1749 13.335 18.5046C12.8417 18.8342 12.4572 19.3028 12.2301 19.8509C12.003 20.3991 11.9436 21.0023 12.0594 21.5843C12.1751 22.1662 12.4609 22.7007 12.8804 23.1203C13.3 23.5399 13.8345 23.8256 14.4165 23.9413C14.9984 24.0571 15.6016 23.9977 16.1498 23.7706C16.698 23.5436 17.1665 23.159 17.4962 22.6657C17.8258 22.1723 18.0017 21.5923 18.0017 20.999C18.0017 20.2033 17.6857 19.4403 17.1231 18.8777C16.5605 18.3151 15.7974 17.999 15.0017 17.999ZM15.0017 21.999C14.804 21.999 14.6106 21.9403 14.4462 21.8305C14.2817 21.7206 14.1536 21.5644 14.0779 21.3817C14.0022 21.1989 13.9824 20.9979 14.021 20.8039C14.0595 20.6099 14.1548 20.4317 14.2946 20.2919C14.4345 20.152 14.6127 20.0568 14.8067 20.0182C15.0006 19.9796 15.2017 19.9994 15.3844 20.0751C15.5672 20.1508 15.7233 20.279 15.8332 20.4434C15.9431 20.6079 16.0017 20.8012 16.0017 20.999C16.0017 21.2642 15.8964 21.5186 15.7089 21.7061C15.5213 21.8936 15.267 21.999 15.0017 21.999ZM15.0017 13.999C13.1465 14.0054 11.3683 14.7418 10.0517 16.049C9.8655 16.2363 9.76095 16.4898 9.76095 16.754C9.76095 17.0182 9.8655 17.2716 10.0517 17.459C10.2391 17.6452 10.4926 17.7498 10.7567 17.7498C11.0209 17.7498 11.2744 17.6452 11.4617 17.459C11.9262 16.9934 12.478 16.6239 13.0854 16.3719C13.6929 16.1198 14.3441 15.99 15.0017 15.99C15.6594 15.99 16.3106 16.1198 16.9181 16.3719C17.5255 16.6239 18.0773 16.9934 18.5417 17.459C18.7264 17.6474 18.978 17.7552 19.2417 17.759C19.4446 17.7707 19.6463 17.7202 19.8198 17.6144C19.9933 17.5086 20.1305 17.3525 20.213 17.1668C20.2956 16.9811 20.3196 16.7746 20.2818 16.5749C20.2441 16.3752 20.1464 16.1918 20.0017 16.049C19.3438 15.3957 18.5636 14.8784 17.7057 14.5267C16.8477 14.1749 15.929 13.9956 15.0017 13.999ZM15.0017 9.99899C12.0857 10.0067 9.29033 11.1637 7.22175 13.219C7.12851 13.3122 7.05455 13.4229 7.00409 13.5447C6.95363 13.6666 6.92766 13.7971 6.92766 13.929C6.92766 14.1953 7.03344 14.4507 7.22175 14.639C7.41005 14.8273 7.66545 14.9331 7.93175 14.9331C8.19805 14.9331 8.45344 14.8273 8.64175 14.639C10.3293 12.9536 12.6167 12.0069 15.0017 12.0069C17.3868 12.0069 19.6742 12.9536 21.3617 14.639C21.4552 14.7317 21.566 14.805 21.6878 14.8548C21.8097 14.9045 21.9401 14.9297 22.0717 14.929C22.2034 14.9297 22.3338 14.9045 22.4557 14.8548C22.5775 14.805 22.6883 14.7317 22.7817 14.639C22.8755 14.546 22.9499 14.4354 23.0006 14.3136C23.0514 14.1917 23.0775 14.061 23.0775 13.929C23.0775 13.797 23.0514 13.6663 23.0006 13.5444C22.9499 13.4225 22.8755 13.3119 22.7817 13.219C20.7132 11.1637 17.9178 10.0067 15.0017 9.99899ZM25.6117 10.389C24.2187 8.99509 22.5647 7.88934 20.7442 7.13491C18.9237 6.38049 16.9724 5.99219 15.0017 5.99219C13.0311 5.99219 11.0798 6.38049 9.25928 7.13491C7.43877 7.88934 5.78475 8.99509 4.39175 10.389C4.20344 10.5773 4.09766 10.8327 4.09766 11.099C4.09766 11.3653 4.20344 11.6207 4.39175 11.809C4.58005 11.9973 4.83545 12.1031 5.10175 12.1031C5.36805 12.1031 5.62344 11.9973 5.81175 11.809C8.24953 9.37247 11.5551 8.00376 15.0017 8.00376C18.4484 8.00376 21.754 9.37247 24.1917 11.809C24.2847 11.9027 24.3953 11.9771 24.5172 12.0279C24.639 12.0786 24.7697 12.1048 24.9017 12.1048C25.0338 12.1048 25.1645 12.0786 25.2863 12.0279C25.4082 11.9771 25.5188 11.9027 25.6117 11.809C25.7055 11.716 25.7799 11.6054 25.8306 11.4836C25.8814 11.3617 25.9075 11.231 25.9075 11.099C25.9075 10.967 25.8814 10.8363 25.8306 10.7144C25.7799 10.5925 25.7055 10.4819 25.6117 10.389Z" fill="black"/>
</svg>
