<svg width="138" height="40" viewBox="0 0 138 40" fill="none" xmlns="http://www.w3.org/2000/svg">
<rect width="138" height="40" rx="4" fill="#0D0D0D"/>
<rect x="1" y="2" width="36" height="36" rx="18" fill="#0D0D0D"/>
<path d="M19.1429 14.5585C18.2541 14.5585 16.8784 13.548 15.4296 13.5845C13.5182 13.6089 11.765 14.6924 10.7788 16.4091C8.79437 19.8545 10.2675 24.9436 12.2033 27.7437C13.1529 29.1073 14.273 30.6413 15.7583 30.5926C17.1827 30.5317 17.7184 29.6673 19.4472 29.6673C21.1639 29.6673 21.6509 30.5926 23.1605 30.5561C24.6945 30.5317 25.6685 29.1682 26.606 27.7924C27.6895 26.2097 28.14 24.6757 28.1643 24.5905C28.1278 24.5783 25.1815 23.4461 25.145 20.0371C25.1207 17.1883 27.4704 15.8247 27.58 15.7638C26.2407 13.8037 24.1832 13.5845 23.4649 13.5358C21.59 13.3898 20.0195 14.5585 19.1429 14.5585ZM22.3083 11.6853C23.0997 10.7357 23.6232 9.40862 23.4771 8.09375C22.3448 8.14245 20.9813 8.84858 20.1656 9.79821C19.4351 10.6383 18.802 11.9897 18.9724 13.2802C20.2264 13.3776 21.5169 12.6349 22.3083 11.6853Z" fill="white"/>
<path d="M46.55 11.704C46.55 12.348 46.448 12.934 46.244 13.462C46.04 13.99 45.752 14.442 45.38 14.818C45.008 15.194 44.56 15.486 44.036 15.694C43.516 15.898 42.94 16 42.308 16H39.098V7.402H42.308C42.94 7.402 43.516 7.506 44.036 7.714C44.56 7.918 45.008 8.21 45.38 8.59C45.752 8.966 46.04 9.418 46.244 9.946C46.448 10.474 46.55 11.06 46.55 11.704ZM45.356 11.704C45.356 11.176 45.284 10.704 45.14 10.288C44.996 9.872 44.792 9.52 44.528 9.232C44.264 8.944 43.944 8.724 43.568 8.572C43.192 8.42 42.772 8.344 42.308 8.344H40.262V15.058H42.308C42.772 15.058 43.192 14.982 43.568 14.83C43.944 14.678 44.264 14.46 44.528 14.176C44.792 13.888 44.996 13.536 45.14 13.12C45.284 12.704 45.356 12.232 45.356 11.704ZM50.4549 9.826C50.8989 9.826 51.2989 9.9 51.6549 10.048C52.0109 10.196 52.3149 10.406 52.5669 10.678C52.8189 10.95 53.0109 11.28 53.1429 11.668C53.2789 12.052 53.3469 12.482 53.3469 12.958C53.3469 13.438 53.2789 13.87 53.1429 14.254C53.0109 14.638 52.8189 14.966 52.5669 15.238C52.3149 15.51 52.0109 15.72 51.6549 15.868C51.2989 16.012 50.8989 16.084 50.4549 16.084C50.0069 16.084 49.6029 16.012 49.2429 15.868C48.8869 15.72 48.5829 15.51 48.3309 15.238C48.0789 14.966 47.8849 14.638 47.7489 14.254C47.6169 13.87 47.5509 13.438 47.5509 12.958C47.5509 12.482 47.6169 12.052 47.7489 11.668C47.8849 11.28 48.0789 10.95 48.3309 10.678C48.5829 10.406 48.8869 10.196 49.2429 10.048C49.6029 9.9 50.0069 9.826 50.4549 9.826ZM50.4549 15.25C51.0549 15.25 51.5029 15.05 51.7989 14.65C52.0949 14.246 52.2429 13.684 52.2429 12.964C52.2429 12.24 52.0949 11.676 51.7989 11.272C51.5029 10.868 51.0549 10.666 50.4549 10.666C50.1509 10.666 49.8849 10.718 49.6569 10.822C49.4329 10.926 49.2449 11.076 49.0929 11.272C48.9449 11.468 48.8329 11.71 48.7569 11.998C48.6849 12.282 48.6489 12.604 48.6489 12.964C48.6489 13.684 48.7969 14.246 49.0929 14.65C49.3929 15.05 49.8469 15.25 50.4549 15.25ZM62.9897 9.922L61.0217 16H60.1757C60.0717 16 59.9997 15.932 59.9597 15.796L58.6157 11.674C58.5837 11.582 58.5577 11.49 58.5377 11.398C58.5177 11.302 58.4977 11.208 58.4777 11.116C58.4577 11.208 58.4377 11.302 58.4177 11.398C58.3977 11.49 58.3717 11.584 58.3397 11.68L56.9717 15.796C56.9357 15.932 56.8557 16 56.7317 16H55.9277L53.9597 9.922H54.7997C54.8837 9.922 54.9537 9.944 55.0097 9.988C55.0697 10.032 55.1097 10.084 55.1297 10.144L56.2937 14.056C56.3617 14.344 56.4157 14.616 56.4557 14.872C56.4917 14.74 56.5277 14.606 56.5637 14.47C56.6037 14.334 56.6457 14.196 56.6897 14.056L57.9737 10.12C57.9937 10.06 58.0277 10.01 58.0757 9.97C58.1277 9.93 58.1897 9.91 58.2617 9.91H58.7297C58.8097 9.91 58.8757 9.93 58.9277 9.97C58.9797 10.01 59.0157 10.06 59.0357 10.12L60.2897 14.056C60.3337 14.196 60.3737 14.334 60.4097 14.47C60.4457 14.606 60.4797 14.74 60.5117 14.872C60.5317 14.74 60.5557 14.608 60.5837 14.476C60.6157 14.34 60.6497 14.2 60.6857 14.056L61.8737 10.144C61.8937 10.08 61.9317 10.028 61.9877 9.988C62.0437 9.944 62.1097 9.922 62.1857 9.922H62.9897ZM65.0376 10.804C65.1696 10.656 65.3096 10.522 65.4576 10.402C65.6056 10.282 65.7616 10.18 65.9256 10.096C66.0936 10.008 66.2696 9.942 66.4536 9.898C66.6416 9.85 66.8436 9.826 67.0596 9.826C67.3916 9.826 67.6836 9.882 67.9356 9.994C68.1916 10.102 68.4036 10.258 68.5716 10.462C68.7436 10.662 68.8736 10.904 68.9616 11.188C69.0496 11.472 69.0936 11.786 69.0936 12.13V16H68.0196V12.13C68.0196 11.67 67.9136 11.314 67.7016 11.062C67.4936 10.806 67.1756 10.678 66.7476 10.678C66.4316 10.678 66.1356 10.754 65.8596 10.906C65.5876 11.058 65.3356 11.264 65.1036 11.524V16H64.0296V9.922H64.6716C64.8236 9.922 64.9176 9.996 64.9536 10.144L65.0376 10.804ZM71.825 7.162V16H70.757V7.162H71.825ZM76.1189 9.826C76.5629 9.826 76.9629 9.9 77.3189 10.048C77.6749 10.196 77.9789 10.406 78.2309 10.678C78.4829 10.95 78.6749 11.28 78.8069 11.668C78.9429 12.052 79.0109 12.482 79.0109 12.958C79.0109 13.438 78.9429 13.87 78.8069 14.254C78.6749 14.638 78.4829 14.966 78.2309 15.238C77.9789 15.51 77.6749 15.72 77.3189 15.868C76.9629 16.012 76.5629 16.084 76.1189 16.084C75.6709 16.084 75.2669 16.012 74.9069 15.868C74.5509 15.72 74.2469 15.51 73.9949 15.238C73.7429 14.966 73.5489 14.638 73.4129 14.254C73.2809 13.87 73.2149 13.438 73.2149 12.958C73.2149 12.482 73.2809 12.052 73.4129 11.668C73.5489 11.28 73.7429 10.95 73.9949 10.678C74.2469 10.406 74.5509 10.196 74.9069 10.048C75.2669 9.9 75.6709 9.826 76.1189 9.826ZM76.1189 15.25C76.7189 15.25 77.1669 15.05 77.4629 14.65C77.7589 14.246 77.9069 13.684 77.9069 12.964C77.9069 12.24 77.7589 11.676 77.4629 11.272C77.1669 10.868 76.7189 10.666 76.1189 10.666C75.8149 10.666 75.5489 10.718 75.3209 10.822C75.0969 10.926 74.9089 11.076 74.7569 11.272C74.6089 11.468 74.4969 11.71 74.4209 11.998C74.3489 12.282 74.3129 12.604 74.3129 12.964C74.3129 13.684 74.4609 14.246 74.7569 14.65C75.0569 15.05 75.5109 15.25 76.1189 15.25ZM83.6595 13.264C83.1675 13.28 82.7475 13.32 82.3995 13.384C82.0555 13.444 81.7735 13.524 81.5535 13.624C81.3375 13.724 81.1795 13.842 81.0795 13.978C80.9835 14.114 80.9355 14.266 80.9355 14.434C80.9355 14.594 80.9615 14.732 81.0135 14.848C81.0655 14.964 81.1355 15.06 81.2235 15.136C81.3155 15.208 81.4215 15.262 81.5415 15.298C81.6655 15.33 81.7975 15.346 81.9375 15.346C82.1255 15.346 82.2975 15.328 82.4535 15.292C82.6095 15.252 82.7555 15.196 82.8915 15.124C83.0315 15.052 83.1635 14.966 83.2875 14.866C83.4155 14.766 83.5395 14.652 83.6595 14.524V13.264ZM80.2095 10.78C80.5455 10.456 80.9075 10.214 81.2955 10.054C81.6835 9.894 82.1135 9.814 82.5855 9.814C82.9255 9.814 83.2275 9.87 83.4915 9.982C83.7555 10.094 83.9775 10.25 84.1575 10.45C84.3375 10.65 84.4735 10.892 84.5655 11.176C84.6575 11.46 84.7035 11.772 84.7035 12.112V16H84.2295C84.1255 16 84.0455 15.984 83.9895 15.952C83.9335 15.916 83.8895 15.848 83.8575 15.748L83.7375 15.172C83.5775 15.32 83.4215 15.452 83.2695 15.568C83.1175 15.68 82.9575 15.776 82.7895 15.856C82.6215 15.932 82.4415 15.99 82.2495 16.03C82.0615 16.074 81.8515 16.096 81.6195 16.096C81.3835 16.096 81.1615 16.064 80.9535 16C80.7455 15.932 80.5635 15.832 80.4075 15.7C80.2555 15.568 80.1335 15.402 80.0415 15.202C79.9535 14.998 79.9095 14.758 79.9095 14.482C79.9095 14.242 79.9755 14.012 80.1075 13.792C80.2395 13.568 80.4535 13.37 80.7495 13.198C81.0455 13.026 81.4315 12.886 81.9075 12.778C82.3835 12.666 82.9675 12.602 83.6595 12.586V12.112C83.6595 11.64 83.5575 11.284 83.3535 11.044C83.1495 10.8 82.8515 10.678 82.4595 10.678C82.1955 10.678 81.9735 10.712 81.7935 10.78C81.6175 10.844 81.4635 10.918 81.3315 11.002C81.2035 11.082 81.0915 11.156 80.9955 11.224C80.9035 11.288 80.8115 11.32 80.7195 11.32C80.6475 11.32 80.5855 11.302 80.5335 11.266C80.4815 11.226 80.4375 11.178 80.4015 11.122L80.2095 10.78ZM90.2904 11.368C90.0904 11.1 89.8744 10.914 89.6424 10.81C89.4104 10.702 89.1504 10.648 88.8624 10.648C88.2984 10.648 87.8644 10.85 87.5604 11.254C87.2564 11.658 87.1044 12.234 87.1044 12.982C87.1044 13.378 87.1384 13.718 87.2064 14.002C87.2744 14.282 87.3744 14.514 87.5064 14.698C87.6384 14.878 87.8004 15.01 87.9924 15.094C88.1844 15.178 88.4024 15.22 88.6464 15.22C88.9984 15.22 89.3044 15.14 89.5644 14.98C89.8284 14.82 90.0704 14.594 90.2904 14.302V11.368ZM91.3584 7.162V16H90.7224C90.5704 16 90.4744 15.926 90.4344 15.778L90.3384 15.04C90.0784 15.352 89.7824 15.604 89.4504 15.796C89.1184 15.988 88.7344 16.084 88.2984 16.084C87.9504 16.084 87.6344 16.018 87.3504 15.886C87.0664 15.75 86.8244 15.552 86.6244 15.292C86.4244 15.032 86.2704 14.708 86.1624 14.32C86.0544 13.932 86.0004 13.486 86.0004 12.982C86.0004 12.534 86.0604 12.118 86.1804 11.734C86.3004 11.346 86.4724 11.01 86.6964 10.726C86.9204 10.442 87.1944 10.22 87.5184 10.06C87.8464 9.896 88.2144 9.814 88.6224 9.814C88.9944 9.814 89.3124 9.878 89.5764 10.006C89.8444 10.13 90.0824 10.304 90.2904 10.528V7.162H91.3584ZM98.6775 9.826C99.1215 9.826 99.5215 9.9 99.8775 10.048C100.234 10.196 100.538 10.406 100.79 10.678C101.042 10.95 101.234 11.28 101.366 11.668C101.502 12.052 101.57 12.482 101.57 12.958C101.57 13.438 101.502 13.87 101.366 14.254C101.234 14.638 101.042 14.966 100.79 15.238C100.538 15.51 100.234 15.72 99.8775 15.868C99.5215 16.012 99.1215 16.084 98.6775 16.084C98.2295 16.084 97.8255 16.012 97.4655 15.868C97.1095 15.72 96.8055 15.51 96.5535 15.238C96.3015 14.966 96.1075 14.638 95.9715 14.254C95.8395 13.87 95.7735 13.438 95.7735 12.958C95.7735 12.482 95.8395 12.052 95.9715 11.668C96.1075 11.28 96.3015 10.95 96.5535 10.678C96.8055 10.406 97.1095 10.196 97.4655 10.048C97.8255 9.9 98.2295 9.826 98.6775 9.826ZM98.6775 15.25C99.2775 15.25 99.7255 15.05 100.022 14.65C100.318 14.246 100.466 13.684 100.466 12.964C100.466 12.24 100.318 11.676 100.022 11.272C99.7255 10.868 99.2775 10.666 98.6775 10.666C98.3735 10.666 98.1075 10.718 97.8795 10.822C97.6555 10.926 97.4675 11.076 97.3155 11.272C97.1675 11.468 97.0555 11.71 96.9795 11.998C96.9075 12.282 96.8715 12.604 96.8715 12.964C96.8715 13.684 97.0195 14.246 97.3155 14.65C97.6155 15.05 98.0695 15.25 98.6775 15.25ZM103.932 10.804C104.064 10.656 104.204 10.522 104.352 10.402C104.5 10.282 104.656 10.18 104.82 10.096C104.988 10.008 105.164 9.942 105.348 9.898C105.536 9.85 105.738 9.826 105.954 9.826C106.286 9.826 106.578 9.882 106.83 9.994C107.086 10.102 107.298 10.258 107.466 10.462C107.638 10.662 107.768 10.904 107.856 11.188C107.944 11.472 107.988 11.786 107.988 12.13V16H106.914V12.13C106.914 11.67 106.808 11.314 106.596 11.062C106.388 10.806 106.07 10.678 105.642 10.678C105.326 10.678 105.03 10.754 104.754 10.906C104.482 11.058 104.23 11.264 103.998 11.524V16H102.924V9.922H103.566C103.718 9.922 103.812 9.996 103.848 10.144L103.932 10.804ZM114.552 16.096C114.072 16.096 113.702 15.962 113.442 15.694C113.186 15.426 113.058 15.04 113.058 14.536V10.816H112.326C112.262 10.816 112.208 10.798 112.164 10.762C112.12 10.722 112.098 10.662 112.098 10.582V10.156L113.094 10.03L113.34 8.152C113.352 8.092 113.378 8.044 113.418 8.008C113.462 7.968 113.518 7.948 113.586 7.948H114.126V10.042H115.884V10.816H114.126V14.464C114.126 14.72 114.188 14.91 114.312 15.034C114.436 15.158 114.596 15.22 114.792 15.22C114.904 15.22 115 15.206 115.08 15.178C115.164 15.146 115.236 15.112 115.296 15.076C115.356 15.04 115.406 15.008 115.446 14.98C115.49 14.948 115.528 14.932 115.56 14.932C115.616 14.932 115.666 14.966 115.71 15.034L116.022 15.544C115.838 15.716 115.616 15.852 115.356 15.952C115.096 16.048 114.828 16.096 114.552 16.096ZM118.061 10.732C118.321 10.456 118.609 10.236 118.925 10.072C119.241 9.908 119.605 9.826 120.017 9.826C120.349 9.826 120.641 9.882 120.893 9.994C121.149 10.102 121.361 10.258 121.529 10.462C121.701 10.662 121.831 10.904 121.919 11.188C122.007 11.472 122.051 11.786 122.051 12.13V16H120.977V12.13C120.977 11.67 120.871 11.314 120.659 11.062C120.451 10.806 120.133 10.678 119.705 10.678C119.389 10.678 119.093 10.754 118.817 10.906C118.545 11.058 118.293 11.264 118.061 11.524V16H116.987V7.162H118.061V10.732ZM127.746 12.298C127.746 12.05 127.71 11.824 127.638 11.62C127.57 11.412 127.468 11.234 127.332 11.086C127.2 10.934 127.038 10.818 126.846 10.738C126.654 10.654 126.436 10.612 126.192 10.612C125.68 10.612 125.274 10.762 124.974 11.062C124.678 11.358 124.494 11.77 124.422 12.298H127.746ZM128.61 15.148C128.478 15.308 128.32 15.448 128.136 15.568C127.952 15.684 127.754 15.78 127.542 15.856C127.334 15.932 127.118 15.988 126.894 16.024C126.67 16.064 126.448 16.084 126.228 16.084C125.808 16.084 125.42 16.014 125.064 15.874C124.712 15.73 124.406 15.522 124.146 15.25C123.89 14.974 123.69 14.634 123.546 14.23C123.402 13.826 123.33 13.362 123.33 12.838C123.33 12.414 123.394 12.018 123.522 11.65C123.654 11.282 123.842 10.964 124.086 10.696C124.33 10.424 124.628 10.212 124.98 10.06C125.332 9.904 125.728 9.826 126.168 9.826C126.532 9.826 126.868 9.888 127.176 10.012C127.488 10.132 127.756 10.308 127.98 10.54C128.208 10.768 128.386 11.052 128.514 11.392C128.642 11.728 128.706 12.112 128.706 12.544C128.706 12.712 128.688 12.824 128.652 12.88C128.616 12.936 128.548 12.964 128.448 12.964H124.386C124.398 13.348 124.45 13.682 124.542 13.966C124.638 14.25 124.77 14.488 124.938 14.68C125.106 14.868 125.306 15.01 125.538 15.106C125.77 15.198 126.03 15.244 126.318 15.244C126.586 15.244 126.816 15.214 127.008 15.154C127.204 15.09 127.372 15.022 127.512 14.95C127.652 14.878 127.768 14.812 127.86 14.752C127.956 14.688 128.038 14.656 128.106 14.656C128.194 14.656 128.262 14.69 128.31 14.758L128.61 15.148ZM45.08 30.01L43.3925 25.6375C43.3425 25.5075 43.29 25.3575 43.235 25.1875C43.18 25.0125 43.1275 24.8275 43.0775 24.6325C42.9725 25.0375 42.865 25.375 42.755 25.645L41.0675 30.01H45.08ZM48.11 34H46.985C46.855 34 46.75 33.9675 46.67 33.9025C46.59 33.8375 46.53 33.755 46.49 33.655L45.485 31.06H40.6625L39.6575 33.655C39.6275 33.745 39.57 33.825 39.485 33.895C39.4 33.965 39.295 34 39.17 34H38.045L42.3425 23.2525H43.8125L48.11 34ZM50.5221 32.17C50.7671 32.5 51.0346 32.7325 51.3246 32.8675C51.6146 33.0025 51.9396 33.07 52.2996 33.07C53.0096 33.07 53.5546 32.8175 53.9346 32.3125C54.3146 31.8075 54.5046 31.0875 54.5046 30.1525C54.5046 29.6575 54.4596 29.2325 54.3696 28.8775C54.2846 28.5225 54.1596 28.2325 53.9946 28.0075C53.8296 27.7775 53.6271 27.61 53.3871 27.505C53.1471 27.4 52.8746 27.3475 52.5696 27.3475C52.1346 27.3475 51.7521 27.4475 51.4221 27.6475C51.0971 27.8475 50.7971 28.13 50.5221 28.495V32.17ZM50.4546 27.58C50.7746 27.185 51.1446 26.8675 51.5646 26.6275C51.9846 26.3875 52.4646 26.2675 53.0046 26.2675C53.4446 26.2675 53.8421 26.3525 54.1971 26.5225C54.5521 26.6875 54.8546 26.935 55.1046 27.265C55.3546 27.59 55.5471 27.995 55.6821 28.48C55.8171 28.965 55.8846 29.5225 55.8846 30.1525C55.8846 30.7125 55.8096 31.235 55.6596 31.72C55.5096 32.2 55.2921 32.6175 55.0071 32.9725C54.7271 33.3225 54.3821 33.6 53.9721 33.805C53.5671 34.005 53.1096 34.105 52.5996 34.105C52.1346 34.105 51.7346 34.0275 51.3996 33.8725C51.0696 33.7125 50.7771 33.4925 50.5221 33.2125V36.5725H49.1796V26.4025H49.9821C50.1721 26.4025 50.2896 26.495 50.3346 26.68L50.4546 27.58ZM58.9303 32.17C59.1753 32.5 59.4428 32.7325 59.7328 32.8675C60.0228 33.0025 60.3478 33.07 60.7078 33.07C61.4178 33.07 61.9628 32.8175 62.3428 32.3125C62.7228 31.8075 62.9128 31.0875 62.9128 30.1525C62.9128 29.6575 62.8678 29.2325 62.7778 28.8775C62.6928 28.5225 62.5678 28.2325 62.4028 28.0075C62.2378 27.7775 62.0353 27.61 61.7953 27.505C61.5553 27.4 61.2828 27.3475 60.9778 27.3475C60.5428 27.3475 60.1603 27.4475 59.8303 27.6475C59.5053 27.8475 59.2053 28.13 58.9303 28.495V32.17ZM58.8628 27.58C59.1828 27.185 59.5528 26.8675 59.9728 26.6275C60.3928 26.3875 60.8728 26.2675 61.4128 26.2675C61.8528 26.2675 62.2503 26.3525 62.6053 26.5225C62.9603 26.6875 63.2628 26.935 63.5128 27.265C63.7628 27.59 63.9553 27.995 64.0903 28.48C64.2253 28.965 64.2928 29.5225 64.2928 30.1525C64.2928 30.7125 64.2178 31.235 64.0678 31.72C63.9178 32.2 63.7003 32.6175 63.4153 32.9725C63.1353 33.3225 62.7903 33.6 62.3803 33.805C61.9753 34.005 61.5178 34.105 61.0078 34.105C60.5428 34.105 60.1428 34.0275 59.8078 33.8725C59.4778 33.7125 59.1853 33.4925 58.9303 33.2125V36.5725H57.5878V26.4025H58.3903C58.5803 26.4025 58.6978 26.495 58.7428 26.68L58.8628 27.58ZM70.421 27.655C70.361 27.765 70.2685 27.82 70.1435 27.82C70.0685 27.82 69.9835 27.7925 69.8885 27.7375C69.7935 27.6825 69.676 27.6225 69.536 27.5575C69.401 27.4875 69.2385 27.425 69.0485 27.37C68.8585 27.31 68.6335 27.28 68.3735 27.28C68.1485 27.28 67.946 27.31 67.766 27.37C67.586 27.425 67.431 27.5025 67.301 27.6025C67.176 27.7025 67.0785 27.82 67.0085 27.955C66.9435 28.085 66.911 28.2275 66.911 28.3825C66.911 28.5775 66.966 28.74 67.076 28.87C67.191 29 67.341 29.1125 67.526 29.2075C67.711 29.3025 67.921 29.3875 68.156 29.4625C68.391 29.5325 68.631 29.61 68.876 29.695C69.126 29.775 69.3685 29.865 69.6035 29.965C69.8385 30.065 70.0485 30.19 70.2335 30.34C70.4185 30.49 70.566 30.675 70.676 30.895C70.791 31.11 70.8485 31.37 70.8485 31.675C70.8485 32.025 70.786 32.35 70.661 32.65C70.536 32.945 70.351 33.2025 70.106 33.4225C69.861 33.6375 69.561 33.8075 69.206 33.9325C68.851 34.0575 68.441 34.12 67.976 34.12C67.446 34.12 66.966 34.035 66.536 33.865C66.106 33.69 65.741 33.4675 65.441 33.1975L65.756 32.6875C65.796 32.6225 65.8435 32.5725 65.8985 32.5375C65.9535 32.5025 66.0235 32.485 66.1085 32.485C66.1985 32.485 66.2935 32.52 66.3935 32.59C66.4935 32.66 66.6135 32.7375 66.7535 32.8225C66.8985 32.9075 67.0735 32.985 67.2785 33.055C67.4835 33.125 67.7385 33.16 68.0435 33.16C68.3035 33.16 68.531 33.1275 68.726 33.0625C68.921 32.9925 69.0835 32.9 69.2135 32.785C69.3435 32.67 69.4385 32.5375 69.4985 32.3875C69.5635 32.2375 69.596 32.0775 69.596 31.9075C69.596 31.6975 69.5385 31.525 69.4235 31.39C69.3135 31.25 69.166 31.1325 68.981 31.0375C68.796 30.9375 68.5835 30.8525 68.3435 30.7825C68.1085 30.7075 67.866 30.63 67.616 30.55C67.371 30.47 67.1285 30.38 66.8885 30.28C66.6535 30.175 66.4435 30.045 66.2585 29.89C66.0735 29.735 65.9235 29.545 65.8085 29.32C65.6985 29.09 65.6435 28.8125 65.6435 28.4875C65.6435 28.1975 65.7035 27.92 65.8235 27.655C65.9435 27.385 66.1185 27.15 66.3485 26.95C66.5785 26.745 66.861 26.5825 67.196 26.4625C67.531 26.3425 67.9135 26.2825 68.3435 26.2825C68.8435 26.2825 69.291 26.3625 69.686 26.5225C70.086 26.6775 70.431 26.8925 70.721 27.1675L70.421 27.655ZM74.8177 34.12C74.2177 34.12 73.7552 33.9525 73.4302 33.6175C73.1102 33.2825 72.9502 32.8 72.9502 32.17V27.52H72.0352C71.9552 27.52 71.8877 27.4975 71.8327 27.4525C71.7777 27.4025 71.7502 27.3275 71.7502 27.2275V26.695L72.9952 26.5375L73.3027 24.19C73.3177 24.115 73.3502 24.055 73.4002 24.01C73.4552 23.96 73.5252 23.935 73.6102 23.935H74.2852V26.5525H76.4827V27.52H74.2852V32.08C74.2852 32.4 74.3627 32.6375 74.5177 32.7925C74.6727 32.9475 74.8727 33.025 75.1177 33.025C75.2577 33.025 75.3777 33.0075 75.4777 32.9725C75.5827 32.9325 75.6727 32.89 75.7477 32.845C75.8227 32.8 75.8852 32.76 75.9352 32.725C75.9902 32.685 76.0377 32.665 76.0777 32.665C76.1477 32.665 76.2102 32.7075 76.2652 32.7925L76.6552 33.43C76.4252 33.645 76.1477 33.815 75.8227 33.94C75.4977 34.06 75.1627 34.12 74.8177 34.12ZM81.0198 26.2825C81.5748 26.2825 82.0748 26.375 82.5198 26.56C82.9648 26.745 83.3448 27.0075 83.6598 27.3475C83.9748 27.6875 84.2148 28.1 84.3798 28.585C84.5498 29.065 84.6348 29.6025 84.6348 30.1975C84.6348 30.7975 84.5498 31.3375 84.3798 31.8175C84.2148 32.2975 83.9748 32.7075 83.6598 33.0475C83.3448 33.3875 82.9648 33.65 82.5198 33.835C82.0748 34.015 81.5748 34.105 81.0198 34.105C80.4598 34.105 79.9548 34.015 79.5048 33.835C79.0598 33.65 78.6798 33.3875 78.3648 33.0475C78.0498 32.7075 77.8073 32.2975 77.6373 31.8175C77.4723 31.3375 77.3898 30.7975 77.3898 30.1975C77.3898 29.6025 77.4723 29.065 77.6373 28.585C77.8073 28.1 78.0498 27.6875 78.3648 27.3475C78.6798 27.0075 79.0598 26.745 79.5048 26.56C79.9548 26.375 80.4598 26.2825 81.0198 26.2825ZM81.0198 33.0625C81.7698 33.0625 82.3298 32.8125 82.6998 32.3125C83.0698 31.8075 83.2548 31.105 83.2548 30.205C83.2548 29.3 83.0698 28.595 82.6998 28.09C82.3298 27.585 81.7698 27.3325 81.0198 27.3325C80.6398 27.3325 80.3073 27.3975 80.0223 27.5275C79.7423 27.6575 79.5073 27.845 79.3173 28.09C79.1323 28.335 78.9923 28.6375 78.8973 28.9975C78.8073 29.3525 78.7623 29.755 78.7623 30.205C78.7623 31.105 78.9473 31.8075 79.3173 32.3125C79.6923 32.8125 80.2598 33.0625 81.0198 33.0625ZM87.5955 27.925C87.8355 27.405 88.1305 27 88.4805 26.71C88.8305 26.415 89.258 26.2675 89.763 26.2675C89.923 26.2675 90.0755 26.285 90.2205 26.32C90.3705 26.355 90.503 26.41 90.618 26.485L90.5205 27.4825C90.4905 27.6075 90.4155 27.67 90.2955 27.67C90.2255 27.67 90.123 27.655 89.988 27.625C89.853 27.595 89.7005 27.58 89.5305 27.58C89.2905 27.58 89.0755 27.615 88.8855 27.685C88.7005 27.755 88.533 27.86 88.383 28C88.238 28.135 88.1055 28.305 87.9855 28.51C87.8705 28.71 87.7655 28.94 87.6705 29.2V34H86.328V26.4025H87.093C87.238 26.4025 87.338 26.43 87.393 26.485C87.448 26.54 87.4855 26.635 87.5055 26.77L87.5955 27.925ZM96.5693 29.3725C96.5693 29.0625 96.5243 28.78 96.4343 28.525C96.3493 28.265 96.2218 28.0425 96.0518 27.8575C95.8868 27.6675 95.6843 27.5225 95.4443 27.4225C95.2043 27.3175 94.9318 27.265 94.6268 27.265C93.9868 27.265 93.4793 27.4525 93.1043 27.8275C92.7343 28.1975 92.5043 28.7125 92.4143 29.3725H96.5693ZM97.6493 32.935C97.4843 33.135 97.2868 33.31 97.0568 33.46C96.8268 33.605 96.5793 33.725 96.3143 33.82C96.0543 33.915 95.7843 33.985 95.5043 34.03C95.2243 34.08 94.9468 34.105 94.6718 34.105C94.1468 34.105 93.6618 34.0175 93.2168 33.8425C92.7768 33.6625 92.3943 33.4025 92.0693 33.0625C91.7493 32.7175 91.4993 32.2925 91.3193 31.7875C91.1393 31.2825 91.0493 30.7025 91.0493 30.0475C91.0493 29.5175 91.1293 29.0225 91.2893 28.5625C91.4543 28.1025 91.6893 27.705 91.9943 27.37C92.2993 27.03 92.6718 26.765 93.1118 26.575C93.5518 26.38 94.0468 26.2825 94.5968 26.2825C95.0518 26.2825 95.4718 26.36 95.8568 26.515C96.2468 26.665 96.5818 26.885 96.8618 27.175C97.1468 27.46 97.3693 27.815 97.5293 28.24C97.6893 28.66 97.7693 29.14 97.7693 29.68C97.7693 29.89 97.7468 30.03 97.7018 30.1C97.6568 30.17 97.5718 30.205 97.4468 30.205H92.3693C92.3843 30.685 92.4493 31.1025 92.5643 31.4575C92.6843 31.8125 92.8493 32.11 93.0593 32.35C93.2693 32.585 93.5193 32.7625 93.8093 32.8825C94.0993 32.9975 94.4243 33.055 94.7843 33.055C95.1193 33.055 95.4068 33.0175 95.6468 32.9425C95.8918 32.8625 96.1018 32.7775 96.2768 32.6875C96.4518 32.5975 96.5968 32.515 96.7118 32.44C96.8318 32.36 96.9343 32.32 97.0193 32.32C97.1293 32.32 97.2143 32.3625 97.2743 32.4475L97.6493 32.935Z" fill="white"/>
</svg>
