<svg width="30" height="30" viewBox="0 0 30 30" fill="none" xmlns="http://www.w3.org/2000/svg">
<rect x="1" y="1" width="28" height="28" rx="3" fill="#F1F7FA" stroke="#064A72" stroke-width="2"/>
<path d="M20.0899 5.82129C19.1702 5.06487 18.0933 4.52332 16.9376 4.23613C15.7819 3.94895 14.5767 3.92338 13.4099 4.16129C11.8563 4.47511 10.4309 5.24336 9.31462 6.36857C8.19832 7.49378 7.44141 8.92522 7.13994 10.4813C6.91979 11.648 6.95979 12.8489 7.2571 13.9984C7.55441 15.1479 8.1017 16.2176 8.85994 17.1313C9.56363 17.9254 9.96698 18.9408 9.99994 20.0013V23.0013C9.99994 23.7969 10.316 24.56 10.8786 25.1226C11.4412 25.6852 12.2043 26.0013 12.9999 26.0013H16.9999C17.7956 26.0013 18.5587 25.6852 19.1213 25.1226C19.6839 24.56 19.9999 23.7969 19.9999 23.0013V20.1913C20.0335 19.0205 20.4637 17.8957 21.2199 17.0013C22.5451 15.3621 23.1697 13.2661 22.9581 11.1689C22.7465 9.07172 21.7158 7.14278 20.0899 5.80129V5.82129ZM17.9999 23.0013C17.9999 23.2665 17.8946 23.5209 17.707 23.7084C17.5195 23.8959 17.2652 24.0013 16.9999 24.0013H12.9999C12.7347 24.0013 12.4804 23.8959 12.2928 23.7084C12.1053 23.5209 11.9999 23.2665 11.9999 23.0013V22.0013H17.9999V23.0013ZM19.6699 15.7613C18.6644 16.9539 18.0778 18.4433 17.9999 20.0013H15.9999V17.0013C15.9999 16.7361 15.8946 16.4817 15.707 16.2942C15.5195 16.1066 15.2652 16.0013 14.9999 16.0013C14.7347 16.0013 14.4804 16.1066 14.2928 16.2942C14.1053 16.4817 13.9999 16.7361 13.9999 17.0013V20.0013H11.9999C11.9736 18.4694 11.4069 16.996 10.3999 15.8413C9.73558 15.0453 9.28883 14.0907 9.10325 13.0706C8.91767 12.0506 8.99959 10.9998 9.34103 10.0208C9.68247 9.04183 10.2718 8.16803 11.0515 7.48461C11.8312 6.8012 12.7747 6.33149 13.7899 6.12129C14.6625 5.94163 15.5641 5.95853 16.4293 6.17076C17.2945 6.38299 18.1016 6.78521 18.792 7.34824C19.4824 7.91127 20.0387 8.62097 20.4206 9.42581C20.8025 10.2306 21.0004 11.1104 20.9999 12.0013C21.0073 13.3712 20.537 14.7008 19.6699 15.7613Z" fill="black"/>
</svg>
