<svg width="105" height="119" viewBox="0 0 105 119" fill="none" xmlns="http://www.w3.org/2000/svg">
<path opacity="0.26" d="M95.0149 87.9391L14.3129 114.652C9.19272 114.652 5.03125 110.678 5.03125 105.789V67.7383C5.03125 62.8493 9.19272 58.8757 14.3129 58.8757L95.0149 32.1631C100.135 32.1631 104.297 36.1367 104.297 41.0257V79.0765C104.297 83.9863 100.135 87.9391 95.0149 87.9391Z" fill="#A7ADFF"/>
<path opacity="0.13" d="M90.0462 85.6923L9.34411 112.405C4.22397 112.405 0.0625 108.431 0.0625 103.542V65.4914C0.0625 60.6024 4.22397 56.6288 9.34411 56.6288L90.0462 29.9163C95.1663 29.9163 99.3278 33.8899 99.3278 38.7788V76.8297C99.306 81.7395 95.1663 85.6923 90.0462 85.6923Z" fill="#A7ADFF"/>
<path opacity="0.39" d="M41.4803 74.3329L16.5769 82.5714C14.9863 82.5714 13.7227 81.344 13.7227 79.8461V68.1125C13.7227 66.5938 15.0081 65.3871 16.5769 65.3871L41.4803 57.1487C43.0708 57.1487 44.3345 58.3761 44.3345 59.874V71.6076C44.3345 73.1055 43.0708 74.3329 41.4803 74.3329Z" fill="white"/>
<path d="M97.9335 19.4724L73.03 27.7108C71.4395 27.7108 70.1758 26.4834 70.1758 24.9855V13.2519C70.1758 11.7332 71.4613 10.5265 73.03 10.5265L97.9335 2.28809C99.524 2.28809 100.788 3.51553 100.788 5.01344V16.747C100.788 18.2449 99.5022 19.4724 97.9335 19.4724Z" fill="#A7ADFF"/>
<path d="M88.4988 16.3516L64.9243 24.1532C63.421 24.1532 62.2227 22.9882 62.2227 21.5735V10.4641C62.2227 9.02857 63.4428 7.88434 64.9243 7.88434L88.4988 0.0827637C90.0021 0.0827637 91.2004 1.2478 91.2004 2.66248V13.7719C91.2004 15.1866 89.9803 16.3516 88.4988 16.3516Z" fill="#E3E5FC"/>
<path d="M96.6042 106.954L73.0298 114.756C71.5265 114.756 70.3281 113.591 70.3281 112.176V101.067C70.3281 99.6311 71.5482 98.4869 73.0298 98.4869L96.6042 90.6853C98.1076 90.6853 99.3059 91.8503 99.3059 93.265V104.374C99.3059 105.789 98.1076 106.954 96.6042 106.954Z" fill="#E3E5FC"/>
<path d="M57.496 110.719L32.5925 118.958C31.002 118.958 29.7383 117.73 29.7383 116.233V104.499C29.7383 102.98 31.0238 101.774 32.5925 101.774L57.496 93.5352C59.0865 93.5352 60.3502 94.7626 60.3502 96.2605V107.994C60.3502 109.513 59.0647 110.719 57.496 110.719Z" fill="#A7ADFF"/>
<path opacity="0.51" d="M41.4803 95.7824L16.5769 104.021C14.9863 104.021 13.7227 102.793 13.7227 101.296V89.562C13.7227 88.0433 15.0081 86.8366 16.5769 86.8366L41.4803 78.5981C43.0708 78.5981 44.3345 79.8256 44.3345 81.3235V93.0571C44.3345 94.555 43.0708 95.7824 41.4803 95.7824Z" fill="white"/>
<path opacity="0.51" d="M53.4432 88.5008C52.8331 88.5008 52.332 88.0223 52.332 87.4398V69.7146C52.332 69.1321 52.8331 68.6536 53.4432 68.6536C54.0533 68.6536 54.5544 69.1321 54.5544 69.7146V87.4398C54.5544 88.0223 54.0533 88.5008 53.4432 88.5008Z" fill="white"/>
<path opacity="0.51" d="M59.3899 53.8412C59.1938 53.3003 59.477 52.6762 60.0653 52.4889L89.5224 42.4613C90.0889 42.2741 90.7425 42.5445 90.9386 43.1062C91.1347 43.6471 90.8515 44.2713 90.2632 44.4585L60.8061 54.4861C60.2396 54.6734 59.6077 54.3821 59.3899 53.8412Z" fill="white"/>
<path opacity="0.51" d="M59.3899 57.6686C59.1938 57.1277 59.477 56.5036 60.0653 56.3163L89.5224 46.2887C90.0889 46.1015 90.7425 46.3719 90.9386 46.9336C91.1347 47.4745 90.8515 48.0987 90.2632 48.2859L60.8061 58.3135C60.2396 58.5008 59.6077 58.2095 59.3899 57.6686Z" fill="white"/>
<path opacity="0.51" d="M59.3899 61.4967C59.1938 60.9558 59.477 60.3317 60.0653 60.1444L89.5224 50.1168C90.0889 49.9296 90.7425 50.2 90.9386 50.7617C91.1347 51.3027 90.8515 51.9268 90.2632 52.114L60.8061 62.1416C60.2396 62.3289 59.6077 62.0376 59.3899 61.4967Z" fill="white"/>
<path opacity="0.51" d="M59.3899 65.3246C59.1938 64.7837 59.477 64.1596 60.0653 63.9723L89.5224 53.9447C90.0889 53.7575 90.7425 54.0279 90.9386 54.5896C91.1347 55.1305 90.8515 55.7547 90.2632 55.9419L60.8061 65.9695C60.2396 66.1568 59.6077 65.8863 59.3899 65.3246Z" fill="white"/>
<path opacity="0.51" d="M59.3899 69.1527C59.1938 68.6118 59.477 67.9877 60.0653 67.8005L89.5224 57.7728C90.0889 57.5856 90.7425 57.856 90.9386 58.4178C91.1347 58.9587 90.8515 59.5828 90.2632 59.77L60.8061 69.7977C60.2396 70.0057 59.6077 69.7144 59.3899 69.1527Z" fill="white"/>
<path opacity="0.51" d="M59.3899 73.0016C59.1938 72.4607 59.477 71.8366 60.0653 71.6493L89.5224 61.6217C90.0889 61.4345 90.7425 61.7049 90.9386 62.2666C91.1347 62.8075 90.8515 63.4317 90.2632 63.6189L60.8061 73.6465C60.2396 73.8338 59.6077 73.5425 59.3899 73.0016Z" fill="white"/>
<path opacity="0.51" d="M59.3899 76.8297C59.1938 76.2888 59.477 75.6647 60.0653 75.4774L89.5224 65.4498C90.0889 65.2626 90.7425 65.533 90.9386 66.0948C91.1347 66.6357 90.8515 67.2598 90.2632 67.447L60.8061 77.4746C60.2396 77.6619 59.6077 77.3706 59.3899 76.8297Z" fill="white"/>
<path opacity="0.51" d="M59.3899 80.6574C59.1938 80.1165 59.477 79.4923 60.0653 79.3051L89.5224 69.2775C90.0889 69.0902 90.7425 69.3607 90.9386 69.9224C91.1347 70.4633 90.8515 71.0874 90.2632 71.2747L60.8061 81.3023C60.2396 81.4895 59.6077 81.1983 59.3899 80.6574Z" fill="white"/>
<path opacity="0.51" d="M59.3899 84.4855C59.1938 83.9446 59.477 83.3205 60.0653 83.1332L89.5224 73.1056C90.0889 72.9184 90.7425 73.1888 90.9386 73.7505C91.1347 74.2914 90.8515 74.9156 90.2632 75.1028L60.8061 85.1304C60.2396 85.3177 59.6077 85.0264 59.3899 84.4855Z" fill="white"/>
<path opacity="0.51" d="M59.3899 88.3136C59.1938 87.7727 59.477 87.1486 60.0653 86.9613L89.5224 76.9337C90.0889 76.7465 90.7425 77.0169 90.9386 77.5786C91.1347 78.1196 90.8515 78.7437 90.2632 78.9309L60.8061 88.9585C60.2396 89.1458 59.6077 88.8545 59.3899 88.3136Z" fill="white"/>
</svg>
