<svg width="544" height="156" viewBox="0 0 544 156" fill="none" xmlns="http://www.w3.org/2000/svg">
<mask id="mask0_3429_62" style="mask-type:alpha" maskUnits="userSpaceOnUse" x="0" y="0" width="544" height="156">
<rect x="0.5" y="0.5" width="543" height="155" fill="#0D0D0D" stroke="#E0E0E0"/>
</mask>
<g mask="url(#mask0_3429_62)">
<rect x="0.5" y="0.5" width="543" height="155" fill="#0D0D0D" stroke="#E0E0E0"/>
<ellipse cx="478" cy="2.5" rx="151" ry="150.5" fill="url(#paint0_linear_3429_62)"/>
<path fill-rule="evenodd" clip-rule="evenodd" d="M543.908 2.97594C541.872 2.10797 539.705 1.40318 537.394 0.878353C519.195 -3.25448 504.894 7.762 491.375 22.0847C487.988 25.6727 484.641 29.4792 481.287 33.321C480.898 33.7667 480.509 34.2128 480.119 34.6592L480.087 34.6962L480.076 34.709C477.122 38.0959 474.158 41.4937 471.147 44.7868C464.299 52.2753 457.231 59.192 449.538 64.1498C439.87 70.3811 429.07 74.6263 418.329 78.8485L418.328 78.8487C415.073 80.1282 411.823 81.4056 408.612 82.7355C394.839 88.4398 381.816 95.0994 372.438 107.044C361.181 121.381 351.37 138.178 346 155.783H347.046C352.384 138.449 362.067 121.872 373.224 107.661C382.434 95.9307 395.251 89.3515 408.995 83.6594C412.167 82.3455 415.392 81.0782 418.631 79.805L418.632 79.8048L418.632 79.8045L418.633 79.8045C429.392 75.5757 440.32 71.2809 450.08 64.9904C457.884 59.9611 465.021 52.9671 471.885 45.4616C474.904 42.16 477.875 38.7535 480.828 35.3683C481.232 34.9045 481.636 34.4412 482.04 33.9786C485.394 30.1367 488.73 26.3435 492.102 22.7711C505.618 8.45214 519.559 -2.14634 537.172 1.85353C539.57 2.39806 541.81 3.14204 543.908 4.06683V2.97594ZM543.908 7.59725C543.361 7.44728 542.804 7.30802 542.239 7.17973C524.391 3.12662 510.368 13.9312 497.114 27.9731C493.793 31.491 490.511 35.2228 487.223 38.9894C486.827 39.4434 486.43 39.8979 486.034 40.3526C483.138 43.6723 480.233 47.0026 477.282 50.2301C470.569 57.5717 463.64 64.352 456.099 69.2119C446.621 75.3204 436.034 79.482 425.504 83.6213L425.503 83.6214L425.502 83.6218C422.311 84.8762 419.125 86.1285 415.977 87.4323C402.473 93.0249 389.704 99.5547 380.508 111.267C370.171 124.433 361.077 139.715 355.639 155.783H356.696C362.094 139.981 371.062 124.918 381.295 111.884C390.322 100.386 402.886 93.9366 416.36 88.3562C419.47 87.0681 422.631 85.8256 425.808 84.5772C436.356 80.4313 447.071 76.2202 456.641 70.0525C464.293 65.1211 471.291 58.2635 478.02 50.905C480.981 47.6673 483.894 44.3269 486.79 41.0073L487.31 40.4109L487.976 39.647C491.265 35.8804 494.535 32.1617 497.841 28.6595C511.092 14.6213 524.755 4.23477 542.018 8.1549C542.659 8.30057 543.289 8.4608 543.908 8.63522V7.59725ZM543.908 15.8531C543.436 15.724 542.957 15.6032 542.471 15.4906C525.231 11.4969 511.75 21.866 499.031 35.3545C495.845 38.7339 492.697 42.3198 489.543 45.9388C489.164 46.3744 488.784 46.8104 488.404 47.2466C485.627 50.4371 482.84 53.6374 480.009 56.7384C473.569 63.7907 466.92 70.299 459.673 74.9519C450.563 80.8011 440.376 84.7671 430.241 88.7129C427.169 89.9089 424.102 91.103 421.071 92.3472C408.074 97.6819 395.785 103.926 386.967 115.189C377.539 127.232 369.204 141.129 363.962 155.783H365.025C370.223 141.391 378.433 127.712 387.754 115.806C396.403 104.758 408.483 98.5949 421.45 93.2723C424.442 92.0443 427.483 90.8606 430.539 89.6711L430.542 89.6699C440.695 85.7176 451.011 81.7021 460.214 75.7934C467.572 71.0686 474.292 64.4822 480.747 57.4128C483.588 54.3023 486.382 51.0924 489.159 47.9028L489.171 47.889L489.238 47.8124C489.591 47.4064 489.944 47.0008 490.297 46.5958C493.451 42.9767 496.587 39.4041 499.759 36.0406C512.472 22.5576 525.592 12.607 542.245 16.4648C542.809 16.5954 543.363 16.7375 543.908 16.8909V15.8531Z" fill="#BDBDBD"/>
</g>
<defs>
<linearGradient id="paint0_linear_3429_62" x1="296.087" y1="-67.0988" x2="444.802" y2="81.5232" gradientUnits="userSpaceOnUse">
<stop stop-color="white" stop-opacity="0.2"/>
<stop offset="1" stop-color="white" stop-opacity="0"/>
</linearGradient>
</defs>
</svg>
