<svg width="404" height="100" viewBox="0 0 404 100" fill="none" xmlns="http://www.w3.org/2000/svg">
<g filter="url(#filter0_d_415_60676)">
<rect width="404" height="100" rx="5" fill="white"/>
<rect x="0.75" y="0.75" width="402.5" height="98.5" rx="4.25" stroke="#E0E0E0" stroke-width="1.5"/>
</g>
<path d="M134.52 32.3H129.88V45H127.95V32.3H123.3V30.67H134.52V32.3ZM135.909 36.9C136.229 36.2067 136.623 35.6667 137.089 35.28C137.556 34.8867 138.126 34.69 138.799 34.69C139.013 34.69 139.216 34.7133 139.409 34.76C139.609 34.8067 139.786 34.88 139.939 34.98L139.809 36.31C139.769 36.4767 139.669 36.56 139.509 36.56C139.416 36.56 139.279 36.54 139.099 36.5C138.919 36.46 138.716 36.44 138.489 36.44C138.169 36.44 137.883 36.4867 137.629 36.58C137.383 36.6733 137.159 36.8133 136.959 37C136.766 37.18 136.589 37.4067 136.429 37.68C136.276 37.9467 136.136 38.2533 136.009 38.6V45H134.219V34.87H135.239C135.433 34.87 135.566 34.9067 135.639 34.98C135.713 35.0533 135.763 35.18 135.789 35.36L135.909 36.9ZM147.038 40.44C146.218 40.4667 145.518 40.5333 144.938 40.64C144.365 40.74 143.895 40.8733 143.528 41.04C143.168 41.2067 142.905 41.4033 142.738 41.63C142.578 41.8567 142.498 42.11 142.498 42.39C142.498 42.6567 142.542 42.8867 142.628 43.08C142.715 43.2733 142.832 43.4333 142.978 43.56C143.132 43.68 143.308 43.77 143.508 43.83C143.715 43.8833 143.935 43.91 144.168 43.91C144.482 43.91 144.768 43.88 145.028 43.82C145.288 43.7533 145.532 43.66 145.758 43.54C145.992 43.42 146.212 43.2767 146.418 43.11C146.632 42.9433 146.838 42.7533 147.038 42.54V40.44ZM141.288 36.3C141.848 35.76 142.452 35.3567 143.098 35.09C143.745 34.8233 144.462 34.69 145.248 34.69C145.815 34.69 146.318 34.7833 146.758 34.97C147.198 35.1567 147.568 35.4167 147.868 35.75C148.168 36.0833 148.395 36.4867 148.548 36.96C148.702 37.4333 148.778 37.9533 148.778 38.52V45H147.988C147.815 45 147.682 44.9733 147.588 44.92C147.495 44.86 147.422 44.7467 147.368 44.58L147.168 43.62C146.902 43.8667 146.642 44.0867 146.388 44.28C146.135 44.4667 145.868 44.6267 145.588 44.76C145.308 44.8867 145.008 44.9833 144.688 45.05C144.375 45.1233 144.025 45.16 143.638 45.16C143.245 45.16 142.875 45.1067 142.528 45C142.182 44.8867 141.878 44.72 141.618 44.5C141.365 44.28 141.162 44.0033 141.008 43.67C140.862 43.33 140.788 42.93 140.788 42.47C140.788 42.07 140.898 41.6867 141.118 41.32C141.338 40.9467 141.695 40.6167 142.188 40.33C142.682 40.0433 143.325 39.81 144.118 39.63C144.912 39.4433 145.885 39.3367 147.038 39.31V38.52C147.038 37.7333 146.868 37.14 146.528 36.74C146.188 36.3333 145.692 36.13 145.038 36.13C144.598 36.13 144.228 36.1867 143.928 36.3C143.635 36.4067 143.378 36.53 143.158 36.67C142.945 36.8033 142.758 36.9267 142.598 37.04C142.445 37.1467 142.292 37.2 142.138 37.2C142.018 37.2 141.915 37.17 141.828 37.11C141.742 37.0433 141.668 36.9633 141.608 36.87L141.288 36.3ZM153.37 36.34C153.59 36.0933 153.823 35.87 154.07 35.67C154.316 35.47 154.576 35.3 154.85 35.16C155.13 35.0133 155.423 34.9033 155.73 34.83C156.043 34.75 156.38 34.71 156.74 34.71C157.293 34.71 157.78 34.8033 158.2 34.99C158.626 35.17 158.98 35.43 159.26 35.77C159.546 36.1033 159.763 36.5067 159.91 36.98C160.056 37.4533 160.13 37.9767 160.13 38.55V45H158.34V38.55C158.34 37.7833 158.163 37.19 157.81 36.77C157.463 36.3433 156.933 36.13 156.22 36.13C155.693 36.13 155.2 36.2567 154.74 36.51C154.286 36.7633 153.866 37.1067 153.48 37.54V45H151.69V34.87H152.76C153.013 34.87 153.17 34.9933 153.23 35.24L153.37 36.34ZM168.942 36.54C168.862 36.6867 168.739 36.76 168.572 36.76C168.472 36.76 168.359 36.7233 168.232 36.65C168.105 36.5767 167.949 36.4967 167.762 36.41C167.582 36.3167 167.365 36.2333 167.112 36.16C166.859 36.08 166.559 36.04 166.212 36.04C165.912 36.04 165.642 36.08 165.402 36.16C165.162 36.2333 164.955 36.3367 164.782 36.47C164.615 36.6033 164.485 36.76 164.392 36.94C164.305 37.1133 164.262 37.3033 164.262 37.51C164.262 37.77 164.335 37.9867 164.482 38.16C164.635 38.3333 164.835 38.4833 165.082 38.61C165.329 38.7367 165.609 38.85 165.922 38.95C166.235 39.0433 166.555 39.1467 166.882 39.26C167.215 39.3667 167.539 39.4867 167.852 39.62C168.165 39.7533 168.445 39.92 168.692 40.12C168.939 40.32 169.135 40.5667 169.282 40.86C169.435 41.1467 169.512 41.4933 169.512 41.9C169.512 42.3667 169.429 42.8 169.262 43.2C169.095 43.5933 168.849 43.9367 168.522 44.23C168.195 44.5167 167.795 44.7433 167.322 44.91C166.849 45.0767 166.302 45.16 165.682 45.16C164.975 45.16 164.335 45.0467 163.762 44.82C163.189 44.5867 162.702 44.29 162.302 43.93L162.722 43.25C162.775 43.1633 162.839 43.0967 162.912 43.05C162.985 43.0033 163.079 42.98 163.192 42.98C163.312 42.98 163.439 43.0267 163.572 43.12C163.705 43.2133 163.865 43.3167 164.052 43.43C164.245 43.5433 164.479 43.6467 164.752 43.74C165.025 43.8333 165.365 43.88 165.772 43.88C166.119 43.88 166.422 43.8367 166.682 43.75C166.942 43.6567 167.159 43.5333 167.332 43.38C167.505 43.2267 167.632 43.05 167.712 42.85C167.799 42.65 167.842 42.4367 167.842 42.21C167.842 41.93 167.765 41.7 167.612 41.52C167.465 41.3333 167.269 41.1767 167.022 41.05C166.775 40.9167 166.492 40.8033 166.172 40.71C165.859 40.61 165.535 40.5067 165.202 40.4C164.875 40.2933 164.552 40.1733 164.232 40.04C163.919 39.9 163.639 39.7267 163.392 39.52C163.145 39.3133 162.945 39.06 162.792 38.76C162.645 38.4533 162.572 38.0833 162.572 37.65C162.572 37.2633 162.652 36.8933 162.812 36.54C162.972 36.18 163.205 35.8667 163.512 35.6C163.819 35.3267 164.195 35.11 164.642 34.95C165.089 34.79 165.599 34.71 166.172 34.71C166.839 34.71 167.435 34.8167 167.962 35.03C168.495 35.2367 168.955 35.5233 169.342 35.89L168.942 36.54ZM172.554 45V36.39L171.434 36.26C171.294 36.2267 171.178 36.1767 171.084 36.11C170.998 36.0367 170.954 35.9333 170.954 35.8V35.07H172.554V34.09C172.554 33.51 172.634 32.9967 172.794 32.55C172.961 32.0967 173.194 31.7167 173.494 31.41C173.801 31.0967 174.168 30.86 174.594 30.7C175.021 30.54 175.501 30.46 176.034 30.46C176.488 30.46 176.904 30.5267 177.284 30.66L177.244 31.55C177.231 31.71 177.141 31.7967 176.974 31.81C176.814 31.8233 176.598 31.83 176.324 31.83C176.018 31.83 175.738 31.87 175.484 31.95C175.238 32.03 175.024 32.16 174.844 32.34C174.664 32.52 174.524 32.7567 174.424 33.05C174.331 33.3433 174.284 33.7067 174.284 34.14V35.07H177.204V36.36H174.344V45H172.554ZM185.554 38.83C185.554 38.4167 185.494 38.04 185.374 37.7C185.261 37.3533 185.091 37.0567 184.864 36.81C184.644 36.5567 184.374 36.3633 184.054 36.23C183.734 36.09 183.371 36.02 182.964 36.02C182.111 36.02 181.434 36.27 180.934 36.77C180.441 37.2633 180.134 37.95 180.014 38.83H185.554ZM186.994 43.58C186.774 43.8467 186.511 44.08 186.204 44.28C185.897 44.4733 185.567 44.6333 185.214 44.76C184.867 44.8867 184.507 44.98 184.134 45.04C183.761 45.1067 183.391 45.14 183.024 45.14C182.324 45.14 181.677 45.0233 181.084 44.79C180.497 44.55 179.987 44.2033 179.554 43.75C179.127 43.29 178.794 42.7233 178.554 42.05C178.314 41.3767 178.194 40.6033 178.194 39.73C178.194 39.0233 178.301 38.3633 178.514 37.75C178.734 37.1367 179.047 36.6067 179.454 36.16C179.861 35.7067 180.357 35.3533 180.944 35.1C181.531 34.84 182.191 34.71 182.924 34.71C183.531 34.71 184.091 34.8133 184.604 35.02C185.124 35.22 185.571 35.5133 185.944 35.9C186.324 36.28 186.621 36.7533 186.834 37.32C187.047 37.88 187.154 38.52 187.154 39.24C187.154 39.52 187.124 39.7067 187.064 39.8C187.004 39.8933 186.891 39.94 186.724 39.94H179.954C179.974 40.58 180.061 41.1367 180.214 41.61C180.374 42.0833 180.594 42.48 180.874 42.8C181.154 43.1133 181.487 43.35 181.874 43.51C182.261 43.6633 182.694 43.74 183.174 43.74C183.621 43.74 184.004 43.69 184.324 43.59C184.651 43.4833 184.931 43.37 185.164 43.25C185.397 43.13 185.591 43.02 185.744 42.92C185.904 42.8133 186.041 42.76 186.154 42.76C186.301 42.76 186.414 42.8167 186.494 42.93L186.994 43.58ZM191.23 36.9C191.55 36.2067 191.944 35.6667 192.41 35.28C192.877 34.8867 193.447 34.69 194.12 34.69C194.334 34.69 194.537 34.7133 194.73 34.76C194.93 34.8067 195.107 34.88 195.26 34.98L195.13 36.31C195.09 36.4767 194.99 36.56 194.83 36.56C194.737 36.56 194.6 36.54 194.42 36.5C194.24 36.46 194.037 36.44 193.81 36.44C193.49 36.44 193.204 36.4867 192.95 36.58C192.704 36.6733 192.48 36.8133 192.28 37C192.087 37.18 191.91 37.4067 191.75 37.68C191.597 37.9467 191.457 38.2533 191.33 38.6V45H189.54V34.87H190.56C190.754 34.87 190.887 34.9067 190.96 34.98C191.034 35.0533 191.084 35.18 191.11 35.36L191.23 36.9ZM205.023 45.16C204.223 45.16 203.606 44.9367 203.173 44.49C202.746 44.0433 202.533 43.4 202.533 42.56V36.36H201.313C201.206 36.36 201.116 36.33 201.043 36.27C200.97 36.2033 200.933 36.1033 200.933 35.97V35.26L202.593 35.05L203.003 31.92C203.023 31.82 203.066 31.74 203.133 31.68C203.206 31.6133 203.3 31.58 203.413 31.58H204.313V35.07H207.243V36.36H204.313V42.44C204.313 42.8667 204.416 43.1833 204.623 43.39C204.83 43.5967 205.096 43.7 205.423 43.7C205.61 43.7 205.77 43.6767 205.903 43.63C206.043 43.5767 206.163 43.52 206.263 43.46C206.363 43.4 206.446 43.3467 206.513 43.3C206.586 43.2467 206.65 43.22 206.703 43.22C206.796 43.22 206.88 43.2767 206.953 43.39L207.473 44.24C207.166 44.5267 206.796 44.7533 206.363 44.92C205.93 45.08 205.483 45.16 205.023 45.16ZM213.493 34.71C214.233 34.71 214.899 34.8333 215.493 35.08C216.086 35.3267 216.593 35.6767 217.013 36.13C217.433 36.5833 217.753 37.1333 217.973 37.78C218.199 38.42 218.313 39.1367 218.313 39.93C218.313 40.73 218.199 41.45 217.973 42.09C217.753 42.73 217.433 43.2767 217.013 43.73C216.593 44.1833 216.086 44.5333 215.493 44.78C214.899 45.02 214.233 45.14 213.493 45.14C212.746 45.14 212.073 45.02 211.473 44.78C210.879 44.5333 210.373 44.1833 209.953 43.73C209.533 43.2767 209.209 42.73 208.983 42.09C208.763 41.45 208.653 40.73 208.653 39.93C208.653 39.1367 208.763 38.42 208.983 37.78C209.209 37.1333 209.533 36.5833 209.953 36.13C210.373 35.6767 210.879 35.3267 211.473 35.08C212.073 34.8333 212.746 34.71 213.493 34.71ZM213.493 43.75C214.493 43.75 215.239 43.4167 215.733 42.75C216.226 42.0767 216.473 41.14 216.473 39.94C216.473 38.7333 216.226 37.7933 215.733 37.12C215.239 36.4467 214.493 36.11 213.493 36.11C212.986 36.11 212.543 36.1967 212.163 36.37C211.789 36.5433 211.476 36.7933 211.223 37.12C210.976 37.4467 210.789 37.85 210.663 38.33C210.543 38.8033 210.483 39.34 210.483 39.94C210.483 41.14 210.729 42.0767 211.223 42.75C211.723 43.4167 212.479 43.75 213.493 43.75ZM230.357 34.71C231.097 34.71 231.764 34.8333 232.357 35.08C232.951 35.3267 233.457 35.6767 233.877 36.13C234.297 36.5833 234.617 37.1333 234.837 37.78C235.064 38.42 235.177 39.1367 235.177 39.93C235.177 40.73 235.064 41.45 234.837 42.09C234.617 42.73 234.297 43.2767 233.877 43.73C233.457 44.1833 232.951 44.5333 232.357 44.78C231.764 45.02 231.097 45.14 230.357 45.14C229.611 45.14 228.937 45.02 228.337 44.78C227.744 44.5333 227.237 44.1833 226.817 43.73C226.397 43.2767 226.074 42.73 225.847 42.09C225.627 41.45 225.517 40.73 225.517 39.93C225.517 39.1367 225.627 38.42 225.847 37.78C226.074 37.1333 226.397 36.5833 226.817 36.13C227.237 35.6767 227.744 35.3267 228.337 35.08C228.937 34.8333 229.611 34.71 230.357 34.71ZM230.357 43.75C231.357 43.75 232.104 43.4167 232.597 42.75C233.091 42.0767 233.337 41.14 233.337 39.94C233.337 38.7333 233.091 37.7933 232.597 37.12C232.104 36.4467 231.357 36.11 230.357 36.11C229.851 36.11 229.407 36.1967 229.027 36.37C228.654 36.5433 228.341 36.7933 228.087 37.12C227.841 37.4467 227.654 37.85 227.527 38.33C227.407 38.8033 227.347 39.34 227.347 39.94C227.347 41.14 227.594 42.0767 228.087 42.75C228.587 43.4167 229.344 43.75 230.357 43.75ZM251.449 34.87L248.169 45H246.759C246.585 45 246.465 44.8867 246.399 44.66L244.159 37.79C244.105 37.6367 244.062 37.4833 244.029 37.33C243.995 37.17 243.962 37.0133 243.929 36.86C243.895 37.0133 243.862 37.17 243.829 37.33C243.795 37.4833 243.752 37.64 243.699 37.8L241.419 44.66C241.359 44.8867 241.225 45 241.019 45H239.679L236.399 34.87H237.799C237.939 34.87 238.055 34.9067 238.149 34.98C238.249 35.0533 238.315 35.14 238.349 35.24L240.289 41.76C240.402 42.24 240.492 42.6933 240.559 43.12C240.619 42.9 240.679 42.6767 240.739 42.45C240.805 42.2233 240.875 41.9933 240.949 41.76L243.089 35.2C243.122 35.1 243.179 35.0167 243.259 34.95C243.345 34.8833 243.449 34.85 243.569 34.85H244.349C244.482 34.85 244.592 34.8833 244.679 34.95C244.765 35.0167 244.825 35.1 244.859 35.2L246.949 41.76C247.022 41.9933 247.089 42.2233 247.149 42.45C247.209 42.6767 247.265 42.9 247.319 43.12C247.352 42.9 247.392 42.68 247.439 42.46C247.492 42.2333 247.549 42 247.609 41.76L249.589 35.24C249.622 35.1333 249.685 35.0467 249.779 34.98C249.872 34.9067 249.982 34.87 250.109 34.87H251.449ZM255.062 36.34C255.282 36.0933 255.515 35.87 255.762 35.67C256.009 35.47 256.269 35.3 256.542 35.16C256.822 35.0133 257.115 34.9033 257.422 34.83C257.735 34.75 258.072 34.71 258.432 34.71C258.985 34.71 259.472 34.8033 259.892 34.99C260.319 35.17 260.672 35.43 260.952 35.77C261.239 36.1033 261.455 36.5067 261.602 36.98C261.749 37.4533 261.822 37.9767 261.822 38.55V45H260.032V38.55C260.032 37.7833 259.855 37.19 259.502 36.77C259.155 36.3433 258.625 36.13 257.912 36.13C257.385 36.13 256.892 36.2567 256.432 36.51C255.979 36.7633 255.559 37.1067 255.172 37.54V45H253.382V34.87H254.452C254.705 34.87 254.862 34.9933 254.922 35.24L255.062 36.34ZM277.417 39.68L275.167 33.85C275.101 33.6767 275.031 33.4767 274.957 33.25C274.884 33.0167 274.814 32.77 274.747 32.51C274.607 33.05 274.464 33.5 274.317 33.86L272.067 39.68H277.417ZM281.457 45H279.957C279.784 45 279.644 44.9567 279.537 44.87C279.431 44.7833 279.351 44.6733 279.297 44.54L277.957 41.08H271.527L270.187 44.54C270.147 44.66 270.071 44.7667 269.957 44.86C269.844 44.9533 269.704 45 269.537 45H268.037L273.767 30.67H275.727L281.457 45ZM289.899 36.67C289.846 36.7433 289.792 36.8 289.739 36.84C289.686 36.88 289.612 36.9 289.519 36.9C289.419 36.9 289.309 36.86 289.189 36.78C289.069 36.6933 288.919 36.6 288.739 36.5C288.566 36.4 288.349 36.31 288.089 36.23C287.836 36.1433 287.522 36.1 287.149 36.1C286.649 36.1 286.209 36.19 285.829 36.37C285.449 36.5433 285.129 36.7967 284.869 37.13C284.616 37.4633 284.422 37.8667 284.289 38.34C284.162 38.8133 284.099 39.3433 284.099 39.93C284.099 40.5433 284.169 41.09 284.309 41.57C284.449 42.0433 284.646 42.4433 284.899 42.77C285.159 43.09 285.469 43.3367 285.829 43.51C286.196 43.6767 286.606 43.76 287.059 43.76C287.492 43.76 287.849 43.71 288.129 43.61C288.409 43.5033 288.639 43.3867 288.819 43.26C289.006 43.1333 289.159 43.02 289.279 42.92C289.406 42.8133 289.529 42.76 289.649 42.76C289.796 42.76 289.909 42.8167 289.989 42.93L290.489 43.58C290.269 43.8533 290.019 44.0867 289.739 44.28C289.459 44.4733 289.156 44.6367 288.829 44.77C288.509 44.8967 288.172 44.99 287.819 45.05C287.466 45.11 287.106 45.14 286.739 45.14C286.106 45.14 285.516 45.0233 284.969 44.79C284.429 44.5567 283.959 44.22 283.559 43.78C283.159 43.3333 282.846 42.7867 282.619 42.14C282.392 41.4933 282.279 40.7567 282.279 39.93C282.279 39.1767 282.382 38.48 282.589 37.84C282.802 37.2 283.109 36.65 283.509 36.19C283.916 35.7233 284.412 35.36 284.999 35.1C285.592 34.84 286.272 34.71 287.039 34.71C287.752 34.71 288.379 34.8267 288.919 35.06C289.466 35.2867 289.949 35.61 290.369 36.03L289.899 36.67ZM299.474 36.67C299.421 36.7433 299.367 36.8 299.314 36.84C299.261 36.88 299.187 36.9 299.094 36.9C298.994 36.9 298.884 36.86 298.764 36.78C298.644 36.6933 298.494 36.6 298.314 36.5C298.141 36.4 297.924 36.31 297.664 36.23C297.411 36.1433 297.097 36.1 296.724 36.1C296.224 36.1 295.784 36.19 295.404 36.37C295.024 36.5433 294.704 36.7967 294.444 37.13C294.191 37.4633 293.997 37.8667 293.864 38.34C293.737 38.8133 293.674 39.3433 293.674 39.93C293.674 40.5433 293.744 41.09 293.884 41.57C294.024 42.0433 294.221 42.4433 294.474 42.77C294.734 43.09 295.044 43.3367 295.404 43.51C295.771 43.6767 296.181 43.76 296.634 43.76C297.067 43.76 297.424 43.71 297.704 43.61C297.984 43.5033 298.214 43.3867 298.394 43.26C298.581 43.1333 298.734 43.02 298.854 42.92C298.981 42.8133 299.104 42.76 299.224 42.76C299.371 42.76 299.484 42.8167 299.564 42.93L300.064 43.58C299.844 43.8533 299.594 44.0867 299.314 44.28C299.034 44.4733 298.731 44.6367 298.404 44.77C298.084 44.8967 297.747 44.99 297.394 45.05C297.041 45.11 296.681 45.14 296.314 45.14C295.681 45.14 295.091 45.0233 294.544 44.79C294.004 44.5567 293.534 44.22 293.134 43.78C292.734 43.3333 292.421 42.7867 292.194 42.14C291.967 41.4933 291.854 40.7567 291.854 39.93C291.854 39.1767 291.957 38.48 292.164 37.84C292.377 37.2 292.684 36.65 293.084 36.19C293.491 35.7233 293.987 35.36 294.574 35.1C295.167 34.84 295.847 34.71 296.614 34.71C297.327 34.71 297.954 34.8267 298.494 35.06C299.041 35.2867 299.524 35.61 299.944 36.03L299.474 36.67ZM306.269 34.71C307.009 34.71 307.676 34.8333 308.269 35.08C308.862 35.3267 309.369 35.6767 309.789 36.13C310.209 36.5833 310.529 37.1333 310.749 37.78C310.976 38.42 311.089 39.1367 311.089 39.93C311.089 40.73 310.976 41.45 310.749 42.09C310.529 42.73 310.209 43.2767 309.789 43.73C309.369 44.1833 308.862 44.5333 308.269 44.78C307.676 45.02 307.009 45.14 306.269 45.14C305.522 45.14 304.849 45.02 304.249 44.78C303.656 44.5333 303.149 44.1833 302.729 43.73C302.309 43.2767 301.986 42.73 301.759 42.09C301.539 41.45 301.429 40.73 301.429 39.93C301.429 39.1367 301.539 38.42 301.759 37.78C301.986 37.1333 302.309 36.5833 302.729 36.13C303.149 35.6767 303.656 35.3267 304.249 35.08C304.849 34.8333 305.522 34.71 306.269 34.71ZM306.269 43.75C307.269 43.75 308.016 43.4167 308.509 42.75C309.002 42.0767 309.249 41.14 309.249 39.94C309.249 38.7333 309.002 37.7933 308.509 37.12C308.016 36.4467 307.269 36.11 306.269 36.11C305.762 36.11 305.319 36.1967 304.939 36.37C304.566 36.5433 304.252 36.7933 303.999 37.12C303.752 37.4467 303.566 37.85 303.439 38.33C303.319 38.8033 303.259 39.34 303.259 39.94C303.259 41.14 303.506 42.0767 303.999 42.75C304.499 43.4167 305.256 43.75 306.269 43.75ZM321.877 34.87V45H320.817C320.563 45 320.403 44.8767 320.337 44.63L320.197 43.54C319.757 44.0267 319.263 44.42 318.717 44.72C318.17 45.0133 317.543 45.16 316.837 45.16C316.283 45.16 315.793 45.07 315.367 44.89C314.947 44.7033 314.593 44.4433 314.307 44.11C314.02 43.7767 313.803 43.3733 313.657 42.9C313.517 42.4267 313.447 41.9033 313.447 41.33V34.87H315.227V41.33C315.227 42.0967 315.4 42.69 315.747 43.11C316.1 43.53 316.637 43.74 317.357 43.74C317.883 43.74 318.373 43.6167 318.827 43.37C319.287 43.1167 319.71 42.77 320.097 42.33V34.87H321.877ZM326.579 36.34C326.799 36.0933 327.032 35.87 327.279 35.67C327.526 35.47 327.786 35.3 328.059 35.16C328.339 35.0133 328.632 34.9033 328.939 34.83C329.252 34.75 329.589 34.71 329.949 34.71C330.502 34.71 330.989 34.8033 331.409 34.99C331.836 35.17 332.189 35.43 332.469 35.77C332.756 36.1033 332.972 36.5067 333.119 36.98C333.266 37.4533 333.339 37.9767 333.339 38.55V45H331.549V38.55C331.549 37.7833 331.372 37.19 331.019 36.77C330.672 36.3433 330.142 36.13 329.429 36.13C328.902 36.13 328.409 36.2567 327.949 36.51C327.496 36.7633 327.076 37.1067 326.689 37.54V45H324.899V34.87H325.969C326.222 34.87 326.379 34.9933 326.439 35.24L326.579 36.34ZM339.225 45.16C338.425 45.16 337.808 44.9367 337.375 44.49C336.948 44.0433 336.735 43.4 336.735 42.56V36.36H335.515C335.408 36.36 335.318 36.33 335.245 36.27C335.171 36.2033 335.135 36.1033 335.135 35.97V35.26L336.795 35.05L337.205 31.92C337.225 31.82 337.268 31.74 337.335 31.68C337.408 31.6133 337.501 31.58 337.615 31.58H338.515V35.07H341.445V36.36H338.515V42.44C338.515 42.8667 338.618 43.1833 338.825 43.39C339.031 43.5967 339.298 43.7 339.625 43.7C339.811 43.7 339.971 43.6767 340.105 43.63C340.245 43.5767 340.365 43.52 340.465 43.46C340.565 43.4 340.648 43.3467 340.715 43.3C340.788 43.2467 340.851 43.22 340.905 43.22C340.998 43.22 341.081 43.2767 341.155 43.39L341.675 44.24C341.368 44.5267 340.998 44.7533 340.565 44.92C340.131 45.08 339.685 45.16 339.225 45.16Z" fill="#1C1C1C"/>
<path d="M132.216 66.84H128.504V77H126.96V66.84H123.24V65.536H132.216V66.84ZM133.367 70.52C133.623 69.9653 133.938 69.5333 134.312 69.224C134.685 68.9093 135.141 68.752 135.68 68.752C135.85 68.752 136.013 68.7707 136.168 68.808C136.328 68.8453 136.469 68.904 136.592 68.984L136.488 70.048C136.455 70.1813 136.375 70.248 136.247 70.248C136.173 70.248 136.063 70.232 135.919 70.2C135.776 70.168 135.613 70.152 135.431 70.152C135.176 70.152 134.946 70.1893 134.743 70.264C134.546 70.3387 134.367 70.4507 134.207 70.6C134.053 70.744 133.911 70.9253 133.783 71.144C133.661 71.3573 133.549 71.6027 133.447 71.88V77H132.015V68.896H132.831C132.986 68.896 133.093 68.9253 133.151 68.984C133.21 69.0427 133.25 69.144 133.271 69.288L133.367 70.52ZM142.311 73.352C141.655 73.3733 141.095 73.4267 140.631 73.512C140.172 73.592 139.796 73.6987 139.503 73.832C139.215 73.9653 139.004 74.1227 138.871 74.304C138.743 74.4853 138.679 74.688 138.679 74.912C138.679 75.1253 138.713 75.3093 138.783 75.464C138.852 75.6187 138.945 75.7467 139.063 75.848C139.185 75.944 139.327 76.016 139.487 76.064C139.652 76.1067 139.828 76.128 140.015 76.128C140.265 76.128 140.495 76.104 140.703 76.056C140.911 76.0027 141.105 75.928 141.287 75.832C141.473 75.736 141.649 75.6213 141.815 75.488C141.985 75.3547 142.151 75.2027 142.311 75.032V73.352ZM137.711 70.04C138.159 69.608 138.641 69.2853 139.159 69.072C139.676 68.8587 140.249 68.752 140.879 68.752C141.332 68.752 141.735 68.8267 142.087 68.976C142.439 69.1253 142.735 69.3333 142.975 69.6C143.215 69.8667 143.396 70.1893 143.519 70.568C143.641 70.9467 143.703 71.3627 143.703 71.816V77H143.071C142.932 77 142.825 76.9787 142.751 76.936C142.676 76.888 142.617 76.7973 142.575 76.664L142.415 75.896C142.201 76.0933 141.993 76.2693 141.791 76.424C141.588 76.5733 141.375 76.7013 141.151 76.808C140.927 76.9093 140.687 76.9867 140.431 77.04C140.18 77.0987 139.9 77.128 139.591 77.128C139.276 77.128 138.98 77.0853 138.703 77C138.425 76.9093 138.183 76.776 137.975 76.6C137.772 76.424 137.609 76.2027 137.487 75.936C137.369 75.664 137.311 75.344 137.311 74.976C137.311 74.656 137.399 74.3493 137.575 74.056C137.751 73.7573 138.036 73.4933 138.431 73.264C138.825 73.0347 139.34 72.848 139.975 72.704C140.609 72.5547 141.388 72.4693 142.311 72.448V71.816C142.311 71.1867 142.175 70.712 141.903 70.392C141.631 70.0667 141.233 69.904 140.711 69.904C140.359 69.904 140.063 69.9493 139.823 70.04C139.588 70.1253 139.383 70.224 139.207 70.336C139.036 70.4427 138.887 70.5413 138.759 70.632C138.636 70.7173 138.513 70.76 138.391 70.76C138.295 70.76 138.212 70.736 138.143 70.688C138.073 70.6347 138.015 70.5707 137.967 70.496L137.711 70.04ZM147.416 70.072C147.592 69.8747 147.778 69.696 147.976 69.536C148.173 69.376 148.381 69.24 148.6 69.128C148.824 69.0107 149.058 68.9227 149.304 68.864C149.554 68.8 149.824 68.768 150.112 68.768C150.554 68.768 150.944 68.8427 151.28 68.992C151.621 69.136 151.904 69.344 152.128 69.616C152.357 69.8827 152.53 70.2053 152.648 70.584C152.765 70.9627 152.824 71.3813 152.824 71.84V77H151.392V71.84C151.392 71.2267 151.25 70.752 150.968 70.416C150.69 70.0747 150.266 69.904 149.696 69.904C149.274 69.904 148.88 70.0053 148.512 70.208C148.149 70.4107 147.813 70.6853 147.504 71.032V77H146.072V68.896H146.928C147.13 68.896 147.256 68.9947 147.304 69.192L147.416 70.072ZM159.914 70.232C159.85 70.3493 159.751 70.408 159.618 70.408C159.538 70.408 159.447 70.3787 159.346 70.32C159.244 70.2613 159.119 70.1973 158.97 70.128C158.826 70.0533 158.652 69.9867 158.45 69.928C158.247 69.864 158.007 69.832 157.73 69.832C157.49 69.832 157.274 69.864 157.082 69.928C156.89 69.9867 156.724 70.0693 156.586 70.176C156.452 70.2827 156.348 70.408 156.274 70.552C156.204 70.6907 156.17 70.8427 156.17 71.008C156.17 71.216 156.228 71.3893 156.346 71.528C156.468 71.6667 156.628 71.7867 156.826 71.888C157.023 71.9893 157.247 72.08 157.498 72.16C157.748 72.2347 158.004 72.3173 158.266 72.408C158.532 72.4933 158.791 72.5893 159.042 72.696C159.292 72.8027 159.516 72.936 159.714 73.096C159.911 73.256 160.068 73.4533 160.186 73.688C160.308 73.9173 160.37 74.1947 160.37 74.52C160.37 74.8933 160.303 75.24 160.17 75.56C160.036 75.8747 159.839 76.1493 159.578 76.384C159.316 76.6133 158.996 76.7947 158.618 76.928C158.239 77.0613 157.802 77.128 157.306 77.128C156.74 77.128 156.228 77.0373 155.77 76.856C155.311 76.6693 154.922 76.432 154.602 76.144L154.938 75.6C154.98 75.5307 155.031 75.4773 155.09 75.44C155.148 75.4027 155.223 75.384 155.314 75.384C155.41 75.384 155.511 75.4213 155.618 75.496C155.724 75.5707 155.852 75.6533 156.002 75.744C156.156 75.8347 156.343 75.9173 156.562 75.992C156.78 76.0667 157.052 76.104 157.378 76.104C157.655 76.104 157.898 76.0693 158.106 76C158.314 75.9253 158.487 75.8267 158.626 75.704C158.764 75.5813 158.866 75.44 158.93 75.28C158.999 75.12 159.034 74.9493 159.034 74.768C159.034 74.544 158.972 74.36 158.85 74.216C158.732 74.0667 158.575 73.9413 158.378 73.84C158.18 73.7333 157.954 73.6427 157.698 73.568C157.447 73.488 157.188 73.4053 156.922 73.32C156.66 73.2347 156.402 73.1387 156.146 73.032C155.895 72.92 155.671 72.7813 155.474 72.616C155.276 72.4507 155.116 72.248 154.994 72.008C154.876 71.7627 154.818 71.4667 154.818 71.12C154.818 70.8107 154.882 70.5147 155.01 70.232C155.138 69.944 155.324 69.6933 155.57 69.48C155.815 69.2613 156.116 69.088 156.474 68.96C156.831 68.832 157.239 68.768 157.698 68.768C158.231 68.768 158.708 68.8533 159.13 69.024C159.556 69.1893 159.924 69.4187 160.234 69.712L159.914 70.232ZM162.844 77V70.112L161.948 70.008C161.836 69.9813 161.742 69.9413 161.668 69.888C161.598 69.8293 161.564 69.7467 161.564 69.64V69.056H162.844V68.272C162.844 67.808 162.908 67.3973 163.036 67.04C163.169 66.6773 163.356 66.3733 163.596 66.128C163.841 65.8773 164.134 65.688 164.476 65.56C164.817 65.432 165.201 65.368 165.628 65.368C165.99 65.368 166.324 65.4213 166.628 65.528L166.596 66.24C166.585 66.368 166.513 66.4373 166.38 66.448C166.252 66.4587 166.078 66.464 165.86 66.464C165.614 66.464 165.39 66.496 165.188 66.56C164.99 66.624 164.82 66.728 164.676 66.872C164.532 67.016 164.42 67.2053 164.34 67.44C164.265 67.6747 164.228 67.9653 164.228 68.312V69.056H166.564V70.088H164.276V77H162.844ZM173.283 72.064C173.283 71.7333 173.235 71.432 173.139 71.16C173.049 70.8827 172.913 70.6453 172.731 70.448C172.555 70.2453 172.339 70.0907 172.083 69.984C171.827 69.872 171.537 69.816 171.211 69.816C170.529 69.816 169.987 70.016 169.587 70.416C169.193 70.8107 168.947 71.36 168.851 72.064H173.283ZM174.435 75.864C174.259 76.0773 174.049 76.264 173.803 76.424C173.558 76.5787 173.294 76.7067 173.011 76.808C172.734 76.9093 172.446 76.984 172.147 77.032C171.849 77.0853 171.553 77.112 171.259 77.112C170.699 77.112 170.182 77.0187 169.707 76.832C169.238 76.64 168.83 76.3627 168.483 76C168.142 75.632 167.875 75.1787 167.683 74.64C167.491 74.1013 167.395 73.4827 167.395 72.784C167.395 72.2187 167.481 71.6907 167.651 71.2C167.827 70.7093 168.078 70.2853 168.403 69.928C168.729 69.5653 169.126 69.2827 169.595 69.08C170.065 68.872 170.593 68.768 171.179 68.768C171.665 68.768 172.113 68.8507 172.523 69.016C172.939 69.176 173.297 69.4107 173.595 69.72C173.899 70.024 174.137 70.4027 174.307 70.856C174.478 71.304 174.563 71.816 174.563 72.392C174.563 72.616 174.539 72.7653 174.491 72.84C174.443 72.9147 174.353 72.952 174.219 72.952H168.803C168.819 73.464 168.889 73.9093 169.011 74.288C169.139 74.6667 169.315 74.984 169.539 75.24C169.763 75.4907 170.03 75.68 170.339 75.808C170.649 75.9307 170.995 75.992 171.379 75.992C171.737 75.992 172.043 75.952 172.299 75.872C172.561 75.7867 172.785 75.696 172.971 75.6C173.158 75.504 173.313 75.416 173.435 75.336C173.563 75.2507 173.673 75.208 173.763 75.208C173.881 75.208 173.971 75.2533 174.035 75.344L174.435 75.864ZM177.864 70.52C178.12 69.9653 178.435 69.5333 178.808 69.224C179.182 68.9093 179.638 68.752 180.176 68.752C180.347 68.752 180.51 68.7707 180.664 68.808C180.824 68.8453 180.966 68.904 181.088 68.984L180.984 70.048C180.952 70.1813 180.872 70.248 180.744 70.248C180.67 70.248 180.56 70.232 180.416 70.2C180.272 70.168 180.11 70.152 179.928 70.152C179.672 70.152 179.443 70.1893 179.24 70.264C179.043 70.3387 178.864 70.4507 178.704 70.6C178.55 70.744 178.408 70.9253 178.28 71.144C178.158 71.3573 178.046 71.6027 177.944 71.88V77H176.512V68.896H177.328C177.483 68.896 177.59 68.9253 177.648 68.984C177.707 69.0427 177.747 69.144 177.768 69.288L177.864 70.52ZM188.978 77.128C188.338 77.128 187.845 76.9493 187.498 76.592C187.157 76.2347 186.986 75.72 186.986 75.048V70.088H186.01C185.925 70.088 185.853 70.064 185.794 70.016C185.736 69.9627 185.706 69.8827 185.706 69.776V69.208L187.034 69.04L187.362 66.536C187.378 66.456 187.413 66.392 187.466 66.344C187.525 66.2907 187.6 66.264 187.69 66.264H188.41V69.056H190.754V70.088H188.41V74.952C188.41 75.2933 188.493 75.5467 188.658 75.712C188.824 75.8773 189.037 75.96 189.298 75.96C189.448 75.96 189.576 75.9413 189.682 75.904C189.794 75.8613 189.89 75.816 189.97 75.768C190.05 75.72 190.117 75.6773 190.17 75.64C190.229 75.5973 190.28 75.576 190.322 75.576C190.397 75.576 190.464 75.6213 190.522 75.712L190.938 76.392C190.693 76.6213 190.397 76.8027 190.05 76.936C189.704 77.064 189.346 77.128 188.978 77.128ZM195.794 68.768C196.386 68.768 196.919 68.8667 197.394 69.064C197.869 69.2613 198.274 69.5413 198.61 69.904C198.946 70.2667 199.202 70.7067 199.378 71.224C199.559 71.736 199.65 72.3093 199.65 72.944C199.65 73.584 199.559 74.16 199.378 74.672C199.202 75.184 198.946 75.6213 198.61 75.984C198.274 76.3467 197.869 76.6267 197.394 76.824C196.919 77.016 196.386 77.112 195.794 77.112C195.197 77.112 194.658 77.016 194.178 76.824C193.703 76.6267 193.298 76.3467 192.962 75.984C192.626 75.6213 192.367 75.184 192.186 74.672C192.01 74.16 191.922 73.584 191.922 72.944C191.922 72.3093 192.01 71.736 192.186 71.224C192.367 70.7067 192.626 70.2667 192.962 69.904C193.298 69.5413 193.703 69.2613 194.178 69.064C194.658 68.8667 195.197 68.768 195.794 68.768ZM195.794 76C196.594 76 197.191 75.7333 197.586 75.2C197.981 74.6613 198.178 73.912 198.178 72.952C198.178 71.9867 197.981 71.2347 197.586 70.696C197.191 70.1573 196.594 69.888 195.794 69.888C195.389 69.888 195.034 69.9573 194.73 70.096C194.431 70.2347 194.181 70.4347 193.978 70.696C193.781 70.9573 193.631 71.28 193.53 71.664C193.434 72.0427 193.386 72.472 193.386 72.952C193.386 73.912 193.583 74.6613 193.978 75.2C194.378 75.7333 194.983 76 195.794 76ZM209.366 68.768C209.958 68.768 210.491 68.8667 210.966 69.064C211.441 69.2613 211.846 69.5413 212.182 69.904C212.518 70.2667 212.774 70.7067 212.95 71.224C213.131 71.736 213.222 72.3093 213.222 72.944C213.222 73.584 213.131 74.16 212.95 74.672C212.774 75.184 212.518 75.6213 212.182 75.984C211.846 76.3467 211.441 76.6267 210.966 76.824C210.491 77.016 209.958 77.112 209.366 77.112C208.769 77.112 208.23 77.016 207.75 76.824C207.275 76.6267 206.87 76.3467 206.534 75.984C206.198 75.6213 205.939 75.184 205.758 74.672C205.582 74.16 205.494 73.584 205.494 72.944C205.494 72.3093 205.582 71.736 205.758 71.224C205.939 70.7067 206.198 70.2667 206.534 69.904C206.87 69.5413 207.275 69.2613 207.75 69.064C208.23 68.8667 208.769 68.768 209.366 68.768ZM209.366 76C210.166 76 210.763 75.7333 211.158 75.2C211.553 74.6613 211.75 73.912 211.75 72.952C211.75 71.9867 211.553 71.2347 211.158 70.696C210.763 70.1573 210.166 69.888 209.366 69.888C208.961 69.888 208.606 69.9573 208.302 70.096C208.003 70.2347 207.753 70.4347 207.55 70.696C207.353 70.9573 207.203 71.28 207.102 71.664C207.006 72.0427 206.958 72.472 206.958 72.952C206.958 73.912 207.155 74.6613 207.55 75.2C207.95 75.7333 208.555 76 209.366 76ZM226.279 68.896L223.655 77H222.527C222.388 77 222.292 76.9093 222.239 76.728L220.447 71.232C220.404 71.1093 220.37 70.9867 220.343 70.864C220.316 70.736 220.29 70.6107 220.263 70.488C220.236 70.6107 220.21 70.736 220.183 70.864C220.156 70.9867 220.122 71.112 220.079 71.24L218.255 76.728C218.207 76.9093 218.1 77 217.935 77H216.863L214.239 68.896H215.359C215.471 68.896 215.564 68.9253 215.639 68.984C215.719 69.0427 215.772 69.112 215.799 69.192L217.351 74.408C217.442 74.792 217.514 75.1547 217.567 75.496C217.615 75.32 217.663 75.1413 217.711 74.96C217.764 74.7787 217.82 74.5947 217.879 74.408L219.591 69.16C219.618 69.08 219.663 69.0133 219.727 68.96C219.796 68.9067 219.879 68.88 219.975 68.88H220.599C220.706 68.88 220.794 68.9067 220.863 68.96C220.932 69.0133 220.98 69.08 221.007 69.16L222.679 74.408C222.738 74.5947 222.791 74.7787 222.839 74.96C222.887 75.1413 222.932 75.32 222.975 75.496C223.002 75.32 223.034 75.144 223.071 74.968C223.114 74.7867 223.159 74.6 223.207 74.408L224.791 69.192C224.818 69.1067 224.868 69.0373 224.943 68.984C225.018 68.9253 225.106 68.896 225.207 68.896H226.279ZM229.21 70.072C229.386 69.8747 229.572 69.696 229.77 69.536C229.967 69.376 230.175 69.24 230.394 69.128C230.618 69.0107 230.852 68.9227 231.098 68.864C231.348 68.8 231.618 68.768 231.906 68.768C232.348 68.768 232.738 68.8427 233.074 68.992C233.415 69.136 233.698 69.344 233.922 69.616C234.151 69.8827 234.324 70.2053 234.442 70.584C234.559 70.9627 234.618 71.3813 234.618 71.84V77H233.186V71.84C233.186 71.2267 233.044 70.752 232.762 70.416C232.484 70.0747 232.06 69.904 231.49 69.904C231.068 69.904 230.674 70.0053 230.306 70.208C229.943 70.4107 229.607 70.6853 229.298 71.032V77H227.866V68.896H228.722C228.924 68.896 229.05 68.9947 229.098 69.192L229.21 70.072ZM247.174 72.744L245.374 68.08C245.321 67.9413 245.265 67.7813 245.206 67.6C245.147 67.4133 245.091 67.216 245.038 67.008C244.926 67.44 244.811 67.8 244.694 68.088L242.894 72.744H247.174ZM250.406 77H249.206C249.067 77 248.955 76.9653 248.87 76.896C248.785 76.8267 248.721 76.7387 248.678 76.632L247.606 73.864H242.462L241.39 76.632C241.358 76.728 241.297 76.8133 241.206 76.888C241.115 76.9627 241.003 77 240.87 77H239.67L244.254 65.536H245.822L250.406 77ZM257.199 70.336C257.157 70.3947 257.114 70.44 257.071 70.472C257.029 70.504 256.97 70.52 256.895 70.52C256.815 70.52 256.727 70.488 256.631 70.424C256.535 70.3547 256.415 70.28 256.271 70.2C256.133 70.12 255.959 70.048 255.751 69.984C255.549 69.9147 255.298 69.88 254.999 69.88C254.599 69.88 254.247 69.952 253.943 70.096C253.639 70.2347 253.383 70.4373 253.175 70.704C252.973 70.9707 252.818 71.2933 252.711 71.672C252.61 72.0507 252.559 72.4747 252.559 72.944C252.559 73.4347 252.615 73.872 252.727 74.256C252.839 74.6347 252.997 74.9547 253.199 75.216C253.407 75.472 253.655 75.6693 253.943 75.808C254.237 75.9413 254.565 76.008 254.927 76.008C255.274 76.008 255.559 75.968 255.783 75.888C256.007 75.8027 256.191 75.7093 256.335 75.608C256.485 75.5067 256.607 75.416 256.703 75.336C256.805 75.2507 256.903 75.208 256.999 75.208C257.117 75.208 257.207 75.2533 257.271 75.344L257.671 75.864C257.495 76.0827 257.295 76.2693 257.071 76.424C256.847 76.5787 256.605 76.7093 256.343 76.816C256.087 76.9173 255.818 76.992 255.535 77.04C255.253 77.088 254.965 77.112 254.671 77.112C254.165 77.112 253.693 77.0187 253.255 76.832C252.823 76.6453 252.447 76.376 252.127 76.024C251.807 75.6667 251.557 75.2293 251.375 74.712C251.194 74.1947 251.103 73.6053 251.103 72.944C251.103 72.3413 251.186 71.784 251.351 71.272C251.522 70.76 251.767 70.32 252.087 69.952C252.413 69.5787 252.81 69.288 253.279 69.08C253.754 68.872 254.298 68.768 254.911 68.768C255.482 68.768 255.983 68.8613 256.415 69.048C256.853 69.2293 257.239 69.488 257.575 69.824L257.199 70.336ZM264.899 70.336C264.857 70.3947 264.814 70.44 264.771 70.472C264.729 70.504 264.67 70.52 264.595 70.52C264.515 70.52 264.427 70.488 264.331 70.424C264.235 70.3547 264.115 70.28 263.971 70.2C263.833 70.12 263.659 70.048 263.451 69.984C263.249 69.9147 262.998 69.88 262.699 69.88C262.299 69.88 261.947 69.952 261.643 70.096C261.339 70.2347 261.083 70.4373 260.875 70.704C260.673 70.9707 260.518 71.2933 260.411 71.672C260.31 72.0507 260.259 72.4747 260.259 72.944C260.259 73.4347 260.315 73.872 260.427 74.256C260.539 74.6347 260.697 74.9547 260.899 75.216C261.107 75.472 261.355 75.6693 261.643 75.808C261.937 75.9413 262.265 76.008 262.627 76.008C262.974 76.008 263.259 75.968 263.483 75.888C263.707 75.8027 263.891 75.7093 264.035 75.608C264.185 75.5067 264.307 75.416 264.403 75.336C264.505 75.2507 264.603 75.208 264.699 75.208C264.817 75.208 264.907 75.2533 264.971 75.344L265.371 75.864C265.195 76.0827 264.995 76.2693 264.771 76.424C264.547 76.5787 264.305 76.7093 264.043 76.816C263.787 76.9173 263.518 76.992 263.235 77.04C262.953 77.088 262.665 77.112 262.371 77.112C261.865 77.112 261.393 77.0187 260.955 76.832C260.523 76.6453 260.147 76.376 259.827 76.024C259.507 75.6667 259.257 75.2293 259.075 74.712C258.894 74.1947 258.803 73.6053 258.803 72.944C258.803 72.3413 258.886 71.784 259.051 71.272C259.222 70.76 259.467 70.32 259.787 69.952C260.113 69.5787 260.51 69.288 260.979 69.08C261.454 68.872 261.998 68.768 262.611 68.768C263.182 68.768 263.683 68.8613 264.115 69.048C264.553 69.2293 264.939 69.488 265.275 69.824L264.899 70.336ZM270.375 68.768C270.967 68.768 271.501 68.8667 271.975 69.064C272.45 69.2613 272.855 69.5413 273.191 69.904C273.527 70.2667 273.783 70.7067 273.959 71.224C274.141 71.736 274.231 72.3093 274.231 72.944C274.231 73.584 274.141 74.16 273.959 74.672C273.783 75.184 273.527 75.6213 273.191 75.984C272.855 76.3467 272.45 76.6267 271.975 76.824C271.501 77.016 270.967 77.112 270.375 77.112C269.778 77.112 269.239 77.016 268.759 76.824C268.285 76.6267 267.879 76.3467 267.543 75.984C267.207 75.6213 266.949 75.184 266.767 74.672C266.591 74.16 266.503 73.584 266.503 72.944C266.503 72.3093 266.591 71.736 266.767 71.224C266.949 70.7067 267.207 70.2667 267.543 69.904C267.879 69.5413 268.285 69.2613 268.759 69.064C269.239 68.8667 269.778 68.768 270.375 68.768ZM270.375 76C271.175 76 271.773 75.7333 272.167 75.2C272.562 74.6613 272.759 73.912 272.759 72.952C272.759 71.9867 272.562 71.2347 272.167 70.696C271.773 70.1573 271.175 69.888 270.375 69.888C269.97 69.888 269.615 69.9573 269.311 70.096C269.013 70.2347 268.762 70.4347 268.559 70.696C268.362 70.9573 268.213 71.28 268.111 71.664C268.015 72.0427 267.967 72.472 267.967 72.952C267.967 73.912 268.165 74.6613 268.559 75.2C268.959 75.7333 269.565 76 270.375 76ZM282.901 68.896V77H282.053C281.851 77 281.723 76.9013 281.669 76.704L281.557 75.832C281.205 76.2213 280.811 76.536 280.373 76.776C279.936 77.0107 279.435 77.128 278.869 77.128C278.427 77.128 278.035 77.056 277.693 76.912C277.357 76.7627 277.075 76.5547 276.845 76.288C276.616 76.0213 276.443 75.6987 276.325 75.32C276.213 74.9413 276.157 74.5227 276.157 74.064V68.896H277.581V74.064C277.581 74.6773 277.72 75.152 277.997 75.488C278.28 75.824 278.709 75.992 279.285 75.992C279.707 75.992 280.099 75.8933 280.461 75.696C280.829 75.4933 281.168 75.216 281.477 74.864V68.896H282.901ZM286.703 70.072C286.879 69.8747 287.066 69.696 287.263 69.536C287.461 69.376 287.669 69.24 287.887 69.128C288.111 69.0107 288.346 68.9227 288.591 68.864C288.842 68.8 289.111 68.768 289.399 68.768C289.842 68.768 290.231 68.8427 290.567 68.992C290.909 69.136 291.191 69.344 291.415 69.616C291.645 69.8827 291.818 70.2053 291.935 70.584C292.053 70.9627 292.111 71.3813 292.111 71.84V77H290.679V71.84C290.679 71.2267 290.538 70.752 290.255 70.416C289.978 70.0747 289.554 69.904 288.983 69.904C288.562 69.904 288.167 70.0053 287.799 70.208C287.437 70.4107 287.101 70.6853 286.791 71.032V77H285.359V68.896H286.215C286.418 68.896 286.543 68.9947 286.591 69.192L286.703 70.072ZM296.86 77.128C296.22 77.128 295.726 76.9493 295.38 76.592C295.038 76.2347 294.868 75.72 294.868 75.048V70.088H293.892C293.806 70.088 293.734 70.064 293.676 70.016C293.617 69.9627 293.588 69.8827 293.588 69.776V69.208L294.916 69.04L295.244 66.536C295.26 66.456 295.294 66.392 295.348 66.344C295.406 66.2907 295.481 66.264 295.572 66.264H296.292V69.056H298.636V70.088H296.292V74.952C296.292 75.2933 296.374 75.5467 296.54 75.712C296.705 75.8773 296.918 75.96 297.18 75.96C297.329 75.96 297.457 75.9413 297.564 75.904C297.676 75.8613 297.772 75.816 297.852 75.768C297.932 75.72 297.998 75.6773 298.052 75.64C298.11 75.5973 298.161 75.576 298.204 75.576C298.278 75.576 298.345 75.6213 298.404 75.712L298.82 76.392C298.574 76.6213 298.278 76.8027 297.932 76.936C297.585 77.064 297.228 77.128 296.86 77.128Z" fill="#7D7D7D"/>
<g clip-path="url(#clip0_415_60676)">
<rect x="52" y="25" width="50" height="50" rx="4" fill="#FF6634"/>
</g>
<path d="M86.7895 56.5V57.6667C86.7895 58.95 85.7 60 84.3684 60H67.4211C66.0774 60 65 58.95 65 57.6667V41.3333C65 40.05 66.0774 39 67.4211 39H84.3684C85.7 39 86.7895 40.05 86.7895 41.3333V42.5H75.8947C74.5511 42.5 73.4737 43.55 73.4737 44.8333V54.1667C73.4737 55.45 74.5511 56.5 75.8947 56.5H86.7895ZM75.8947 54.1667H88V44.8333H75.8947V54.1667ZM80.7368 51.25C79.7321 51.25 78.9211 50.4683 78.9211 49.5C78.9211 48.5317 79.7321 47.75 80.7368 47.75C81.7416 47.75 82.5526 48.5317 82.5526 49.5C82.5526 50.4683 81.7416 51.25 80.7368 51.25Z" fill="white"/>
<defs>
<filter id="filter0_d_415_60676" x="0" y="0" width="404" height="100" filterUnits="userSpaceOnUse" color-interpolation-filters="sRGB">
<feFlood flood-opacity="0" result="BackgroundImageFix"/>
<feColorMatrix in="SourceAlpha" type="matrix" values="0 0 0 0 0 0 0 0 0 0 0 0 0 0 0 0 0 0 127 0" result="hardAlpha"/>
<feOffset/>
<feColorMatrix type="matrix" values="0 0 0 0 0.898039 0 0 0 0 0.898039 0 0 0 0 0.898039 0 0 0 1 0"/>
<feBlend mode="normal" in2="BackgroundImageFix" result="effect1_dropShadow_415_60676"/>
<feBlend mode="normal" in="SourceGraphic" in2="effect1_dropShadow_415_60676" result="shape"/>
</filter>
<clipPath id="clip0_415_60676">
<rect x="52" y="25" width="50" height="50" rx="4" fill="white"/>
</clipPath>
</defs>
</svg>
