<svg width="20" height="20" viewBox="0 0 20 20" fill="none" xmlns="http://www.w3.org/2000/svg">
<path d="M17.0717 0H2.93099C1.4199 0 0.191406 1.02306 0.191406 2.28163V2.8004H1.90276C2.47027 2.8004 2.92949 3.18445 2.92949 3.65635C2.92949 4.1286 2.4704 4.51117 1.90276 4.51117H0.191406V5.9724H1.90276C2.47027 5.9724 2.92949 6.35644 2.92949 6.82801C2.92949 7.30025 2.4704 7.68294 1.90276 7.68294H0.191406V9.1445H1.90276C2.47027 9.1445 2.92949 9.52776 2.92949 10.0001C2.92949 10.4724 2.4704 10.8557 1.90276 10.8557H0.191406V12.3172H1.90276C2.47027 12.3172 2.92949 12.6999 2.92949 13.1721C2.92949 13.6437 2.4704 14.0277 1.90276 14.0277H0.191406V15.4886H1.90276C2.47027 15.4886 2.92949 15.872 2.92949 16.3434C2.92949 16.8151 2.4704 17.1997 1.90276 17.1997H0.191406V17.7181C0.191406 18.9771 1.4199 20 2.93112 20H17.0718C18.5825 20 19.811 18.9771 19.811 17.7181V2.28163C19.8117 1.02306 18.5832 0 17.0717 0ZM5.24287 13.2672C5.24287 12.1641 6.76958 10.6729 8.82549 10.2379C7.96669 9.75635 7.3735 8.80348 7.3735 7.94629C7.3735 6.73766 8.54955 5.75501 10.0014 5.75501C11.4542 5.75501 12.6307 6.73777 12.6307 7.94629C12.6307 8.80348 12.0367 9.75635 11.1762 10.2379C13.2346 10.6729 14.7602 12.1641 14.7602 13.2672C14.7594 14.5729 5.24287 14.5729 5.24287 13.2672Z" fill="#FF4400"/>
</svg>
