<svg width="24" height="24" viewBox="0 0 24 24" fill="none" xmlns="http://www.w3.org/2000/svg">
<path d="M12.9654 19.6513C12.8977 19.1894 12.503 18.832 12.0206 18.832H7.41854C6.93719 18.832 6.5425 19.1887 6.47421 19.6513C5.98671 19.8045 5.62891 20.2555 5.62891 20.7945V21.1321H13.8107V20.7945C13.8107 20.2555 13.454 19.8051 12.9654 19.6513Z" fill="#FF4400"/>
<path d="M13.8206 14.2756C13.8258 14.2604 13.8346 14.2433 13.8382 14.2287L14.1565 13.1151C14.2741 12.7063 14.0773 12.2198 13.7086 12.0073L12.2607 11.1703C11.9039 10.9641 11.3597 11.0423 11.0763 11.3365L10.2716 12.1693C10.032 12.4167 9.77057 12.8694 9.67634 13.2001L9.35811 14.3137C9.24089 14.7225 9.43676 15.209 9.80603 15.4214L11.2539 16.2575C11.392 16.3376 11.5555 16.3798 11.7274 16.3798C11.9988 16.3798 12.2649 16.2726 12.4372 16.0918L13.2436 15.2595C13.2539 15.248 13.2649 15.2324 13.2758 15.2204L15.2112 16.3381C15.2581 16.5568 15.3899 16.7568 15.5992 16.8771L17.9613 18.2407C18.0904 18.3152 18.2311 18.3506 18.3701 18.3506C18.6524 18.3506 18.9279 18.2042 19.079 17.9413C19.3045 17.55 19.1712 17.0496 18.7799 16.824L16.4174 15.4599C16.2086 15.3396 15.9695 15.324 15.757 15.3932L13.8206 14.2756Z" fill="#FF4400"/>
<path d="M11.5067 9.78861C11.3561 10.0497 11.4457 10.383 11.7067 10.5334L14.5411 12.1704C14.6265 12.2199 14.7202 12.2433 14.813 12.2433C15.0015 12.2433 15.1849 12.1454 15.2858 11.9704C15.4364 11.709 15.3468 11.3761 15.0858 11.2251L12.2515 9.58852C11.991 9.43855 11.6577 9.52714 11.5067 9.78861Z" fill="#FF4400"/>
<path d="M8.43338 16.2019L11.2672 17.8383C11.3536 17.8878 11.4474 17.9112 11.5401 17.9112C11.7286 17.9112 11.9114 17.8133 12.013 17.6383C12.1635 17.3773 12.0739 17.0445 11.813 16.8935L8.97864 15.257C8.71818 15.1059 8.38387 15.1955 8.2333 15.4565C8.08282 15.7175 8.17183 16.0513 8.43338 16.2019Z" fill="#FF4400"/>
<path d="M12.3529 4.87463C12.1487 4.69804 11.8446 4.69804 11.6404 4.87463L3.41952 11.9653C3.29969 12.0689 3.23047 12.2195 3.23047 12.3788V22.6336C3.23047 22.9352 3.47468 23.179 3.77623 23.179H20.217C20.5186 23.179 20.7628 22.9352 20.7628 22.6336V12.3788C20.7628 12.2194 20.6936 12.0689 20.5738 11.9653L12.3529 4.87463ZM19.6719 22.0878H4.32158V12.6283L11.9967 6.00793L19.6719 12.6283V22.0878Z" fill="#FF4400"/>
<path d="M23.6204 10.462L12.7115 1.08015C12.302 0.728491 11.6979 0.728491 11.2885 1.08015L0.379508 10.462C-0.077247 10.8547 -0.128784 11.5432 0.263382 12.0001C0.656642 12.4563 1.34615 12.5084 1.80198 12.1162L12 3.34624L22.198 12.1162C22.4038 12.2928 22.6569 12.3803 22.9085 12.3803C23.2153 12.3803 23.5206 12.2511 23.7366 12.0001C24.1287 11.5432 24.0772 10.8547 23.6204 10.462Z" fill="#FF4400"/>
</svg>
