<svg width="20" height="20" viewBox="0 0 20 20" fill="none" xmlns="http://www.w3.org/2000/svg">
<path d="M17.0678 0H2.92708C1.41599 0 0.1875 1.02306 0.1875 2.28163V2.8004H1.89885C2.46636 2.8004 2.92559 3.18445 2.92559 3.65635C2.92559 4.1286 2.4665 4.51117 1.89885 4.51117H0.1875V5.9724H1.89885C2.46636 5.9724 2.92559 6.35644 2.92559 6.82801C2.92559 7.30025 2.4665 7.68294 1.89885 7.68294H0.1875V9.1445H1.89885C2.46636 9.1445 2.92559 9.52776 2.92559 10.0001C2.92559 10.4724 2.4665 10.8557 1.89885 10.8557H0.1875V12.3172H1.89885C2.46636 12.3172 2.92559 12.6999 2.92559 13.1721C2.92559 13.6437 2.4665 14.0277 1.89885 14.0277H0.1875V15.4886H1.89885C2.46636 15.4886 2.92559 15.872 2.92559 16.3434C2.92559 16.8151 2.4665 17.1997 1.89885 17.1997H0.1875V17.7181C0.1875 18.9771 1.41599 20 2.92722 20H17.0679C18.5786 20 19.8071 18.9771 19.8071 17.7181V2.28163C19.8078 1.02306 18.5793 0 17.0678 0ZM5.23896 13.2672C5.23896 12.1641 6.76567 10.6729 8.82158 10.2379C7.96278 9.75635 7.36959 8.80348 7.36959 7.94629C7.36959 6.73766 8.54564 5.75501 9.99749 5.75501C11.4503 5.75501 12.6268 6.73777 12.6268 7.94629C12.6268 8.80348 12.0328 9.75635 11.1723 10.2379C13.2307 10.6729 14.7563 12.1641 14.7563 13.2672C14.7555 14.5729 5.23896 14.5729 5.23896 13.2672Z" fill="#858585"/>
</svg>
