<svg width="24" height="24" viewBox="0 0 24 24" fill="none" xmlns="http://www.w3.org/2000/svg">
<path d="M12.9615 19.6513C12.8938 19.1894 12.4991 18.832 12.0167 18.832H7.41463C6.93329 18.832 6.53859 19.1887 6.4703 19.6513C5.98281 19.8045 5.625 20.2555 5.625 20.7945V21.1321H13.8068V20.7945C13.8068 20.2555 13.4501 19.8051 12.9615 19.6513Z" fill="#858585"/>
<path d="M13.8245 14.2756C13.8297 14.2604 13.8385 14.2433 13.8422 14.2287L14.1604 13.1151C14.278 12.7063 14.0812 12.2198 13.7125 12.0073L12.2646 11.1703C11.9079 10.9641 11.3636 11.0423 11.0802 11.3365L10.2755 12.1693C10.036 12.4167 9.77448 12.8694 9.68025 13.2001L9.36202 14.3137C9.2448 14.7225 9.44067 15.209 9.80993 15.4214L11.2578 16.2575C11.3959 16.3376 11.5594 16.3798 11.7313 16.3798C12.0027 16.3798 12.2688 16.2726 12.4412 16.0918L13.2475 15.2595C13.2578 15.248 13.2688 15.2324 13.2797 15.2204L15.2151 16.3381C15.262 16.5568 15.3938 16.7568 15.6032 16.8771L17.9652 18.2407C18.0943 18.3152 18.235 18.3506 18.374 18.3506C18.6564 18.3506 18.9318 18.2042 19.0829 17.9413C19.3084 17.55 19.1751 17.0496 18.7838 16.824L16.4213 15.4599C16.2125 15.3396 15.9734 15.324 15.7609 15.3932L13.8245 14.2756Z" fill="#858585"/>
<path d="M11.5028 9.78861C11.3522 10.0497 11.4418 10.383 11.7028 10.5334L14.5372 12.1704C14.6226 12.2199 14.7163 12.2433 14.8091 12.2433C14.9976 12.2433 15.181 12.1454 15.2819 11.9704C15.4325 11.709 15.3429 11.3761 15.0819 11.2251L12.2476 9.58852C11.9871 9.43855 11.6538 9.52714 11.5028 9.78861Z" fill="#858585"/>
<path d="M8.42947 16.2019L11.2633 17.8383C11.3497 17.8878 11.4435 17.9112 11.5362 17.9112C11.7247 17.9112 11.9075 17.8133 12.0091 17.6383C12.1596 17.3773 12.07 17.0445 11.8091 16.8935L8.97473 15.257C8.71427 15.1059 8.37996 15.1955 8.22939 15.4565C8.07891 15.7175 8.16792 16.0513 8.42947 16.2019Z" fill="#858585"/>
<path d="M12.3568 4.87463C12.1526 4.69804 11.8485 4.69804 11.6443 4.87463L3.42343 11.9653C3.3036 12.0689 3.23438 12.2195 3.23438 12.3788V22.6336C3.23438 22.9352 3.47858 23.179 3.78014 23.179H20.2209C20.5225 23.179 20.7667 22.9352 20.7667 22.6336V12.3788C20.7667 12.2194 20.6975 12.0689 20.5777 11.9653L12.3568 4.87463ZM19.6758 22.0878H4.32548V12.6283L12.0006 6.00793L19.6758 12.6283V22.0878Z" fill="#858585"/>
<path d="M23.6204 10.462L12.7115 1.08015C12.302 0.728491 11.6979 0.728491 11.2885 1.08015L0.379508 10.462C-0.077247 10.8547 -0.128784 11.5432 0.263382 12.0001C0.656642 12.4563 1.34615 12.5084 1.80198 12.1162L12 3.34624L22.198 12.1162C22.4038 12.2928 22.6569 12.3803 22.9085 12.3803C23.2153 12.3803 23.5206 12.2511 23.7366 12.0001C24.1287 11.5432 24.0772 10.8547 23.6204 10.462Z" fill="#858585"/>
</svg>
