<svg width="20" height="20" viewBox="0 0 20 20" fill="none" xmlns="http://www.w3.org/2000/svg">
<path d="M17.1372 10.9344C17.1732 10.6344 17.1972 10.3224 17.1972 9.99844C17.1972 9.67444 17.1732 9.36244 17.1252 9.06244L19.1532 7.47844C19.3332 7.33444 19.3812 7.07044 19.2732 6.86644L17.3532 3.54244C17.2332 3.32644 16.9812 3.25444 16.7652 3.32644L14.3772 4.28644C13.8732 3.90244 13.3452 3.59044 12.7572 3.35044L12.3972 0.806437C12.3612 0.566437 12.1572 0.398438 11.9172 0.398438H8.07718C7.83718 0.398438 7.64518 0.566437 7.60918 0.806437L7.24918 3.35044C6.66118 3.59044 6.12118 3.91444 5.62918 4.28644L3.24118 3.32644C3.02518 3.24244 2.77318 3.32644 2.65318 3.54244L0.733177 6.86644C0.613177 7.08244 0.661177 7.33444 0.853177 7.47844L2.88118 9.06244C2.83318 9.36244 2.79718 9.68644 2.79718 9.99844C2.79718 10.3104 2.82118 10.6344 2.86918 10.9344L0.841177 12.5184C0.661177 12.6624 0.613177 12.9264 0.721177 13.1304L2.64118 16.4544C2.76118 16.6704 3.01318 16.7424 3.22918 16.6704L5.61718 15.7104C6.12118 16.0944 6.64918 16.4064 7.23718 16.6464L7.59718 19.1904C7.64518 19.4304 7.83718 19.5984 8.07718 19.5984H11.9172C12.1572 19.5984 12.3612 19.4304 12.3852 19.1904L12.7452 16.6464C13.3332 16.4064 13.8732 16.0824 14.3652 15.7104L16.7532 16.6704C16.9692 16.7544 17.2212 16.6704 17.3412 16.4544L19.2612 13.1304C19.3812 12.9144 19.3332 12.6624 19.1412 12.5184L17.1372 10.9344ZM9.99718 13.5984C8.01718 13.5984 6.39718 11.9784 6.39718 9.99844C6.39718 8.01844 8.01718 6.39844 9.99718 6.39844C11.9772 6.39844 13.5972 8.01844 13.5972 9.99844C13.5972 11.9784 11.9772 13.5984 9.99718 13.5984Z" fill="#858585"/>
</svg>
